<svg id="uuid-c135d494-1890-4a8e-9b51-49b61d53fe94" xmlns="http://www.w3.org/2000/svg" viewBox="0 0 48 48"><rect id="uuid-7136f89c-0717-4cd7-aec4-6641081c75a1" width="48" height="48" rx="4.48632" ry="4.48632" style="fill:#112033; stroke-width:0px;"/><path d="M31.86994,27.33421l-3.38668-3.3925-.05829.05829-7.7468,7.7468-.05829.05829c-1.87112,1.87112-1.87112,4.90805,0,6.77918h0c1.87112,1.87112,4.90806,1.87112,6.77918,0l4.41259-4.41259h0l.05829-.05829c1.87695-1.87112,1.87695-4.90806,0-6.77918Z" style="fill:#21b7b3; stroke-width:0px;"/><path d="M38.59666,20.6075h0l-11.19177-11.19177c-1.87112-1.87112-4.90806-1.87112-6.77918,0h0c-1.87112,1.87112-1.87112,4.90806,0,6.77918l11.19177,11.19177c1.87112,1.87112,1.87112,4.90805,0,6.77918l6.77918-6.77918h0c1.87112-1.87113,1.87112-4.90223,0-6.77918Z" style="fill:#fff; stroke-width:0px;"/><circle cx="12.74484" cy="24" r="4.74484" style="fill:#fdce0d; stroke-width:0px;"/></svg>