<svg id="uuid-11b6601a-96aa-48e4-a7ff-cde307a51760" xmlns="http://www.w3.org/2000/svg" viewBox="0 0 24 24"><rect width="24" height="24" rx="2.24316" ry="2.24316" style="fill:#112033; stroke-width:0px;"/><path d="M15.93497,13.66711l-1.69334-1.69625-.02915.02915-3.8734,3.8734-.02915.02915c-.93556.93556-.93556,2.45403,0,3.38959h0c.93556.93556,2.45403.93556,3.38959,0l2.20629-2.20629h0l.02915-.02915c.93848-.93556.93848-2.45403,0-3.38959Z" style="fill:#21b7b3; stroke-width:0px;"/><path d="M19.29833,10.30375h0l-5.59588-5.59588c-.93556-.93556-2.45403-.93556-3.38959,0h0c-.93556.93556-.93556,2.45403,0,3.38959l5.59588,5.59588c.93556.93556.93556,2.45403,0,3.38959l3.38959-3.38959h0c.93556-.93556.93556-2.45111,0-3.38959Z" style="fill:#fff; stroke-width:0px;"/><circle cx="6.37242" cy="12" r="2.37242" style="fill:#fdce0d; stroke-width:0px;"/></svg>