<?xml version="1.0" encoding="UTF-8"?><svg id="uuid-10af5da4-59da-4823-aad8-57da26c69584" xmlns="http://www.w3.org/2000/svg" viewBox="0 0 16 16"><path d="M6,13.5c0-1.92969,1.40186-3.5,3.125-3.5h4.75c.82263,0,1.56641.36499,2.125.94897V1.49542c0-.82593-.66956-1.49542-1.49542-1.49542H1.49542C.66956,0,0,.66949,0,1.49542v13.00909c0,.82593.66956,1.49548,1.49542,1.49548h5.4494c-.5813-.63599-.94482-1.52026-.94482-2.5Z" style="fill:#112033; stroke-width:0px;"/><path d="M9.125,15c-.6201,0-1.125-.6729-1.125-1.5s.5049-1.5,1.125-1.5h1.75c.2312,0,.446.0939.625.254.3013.2694.5.7271.5,1.246,0,.177-.0303.3423-.0728.5h1.0289c.0002-.0018.0012-.0034.0014-.0052.0274-.1601.0425-.3254.0425-.4948,0-.1692-.0151-.3342-.0425-.494-.0639-.374-.2041-.7124-.393-1.006-.2654-.4125-.6351-.7202-1.0645-.877-.199-.0726-.406-.123-.625-.123h-1.75c-1.1719,0-2.125,1.1211-2.125,2.5s.9531,2.5,2.125,2.5h.8201c-.2618-.2862-.472-.6265-.6316-1h-.1885Z" style="fill:#000; stroke-width:0px;"/><path d="M13.875,11h-.8201c.2618.2862.472.6265.6316,1h.1885c.6201,0,1.125.6729,1.125,1.5s-.5049,1.5-1.125,1.5h-1.75c-.2312,0-.446-.0939-.625-.254-.3013-.2694-.5-.7271-.5-1.246,0-.177.0303-.3423.0728-.5h-1.0289c-.0002.0019-.0012.0035-.0014.0054-.0274.16-.0425.3252-.0425.4946,0,.1693.0151.3343.0425.4941.0639.374.2043.7123.393,1.0059.2654.4125.6351.7202,1.0645.877.199.0726.406.123.625.123h1.75c1.1719,0,2.125-1.1211,2.125-2.5s-.9531-2.5-2.125-2.5Z" style="fill:#000; stroke-width:0px;"/><path d="M9.125,10h1.75c.00153,0,.00311.00043.00464.00043-.02386-.34851-.1532-.69226-.42029-.9585l-1.05835-1.06018-.01819.01825-2.4209,2.42084-.01819.01825c-.31207.31207-.44482.72638-.42377,1.13525.55988-.94696,1.51727-1.57434,2.60504-1.57434Z" style="fill:#21b7b3; stroke-width:0px;"/><path d="M11.52515,10.0946l1.03632-1.03625c.58472-.58478.58472-1.53198,0-2.11853l-3.49744-3.49744c-.58472-.58472-1.53375-.58472-2.11847,0-.58478.58472-.58478,1.53381,0,2.11853l3.49738,3.49744c.2619.2619.38843.59906.41571.94165h.01636c.21216,0,.42883.03833.65015.0946Z" style="fill:#fff; stroke-width:0px;"/><circle cx="4.48276" cy="8" r="1.48276" style="fill:#fdce0d; stroke-width:0px;"/></svg>