<?xml version="1.0" encoding="UTF-8"?><svg id="uuid-76843fb1-bf02-49e9-8ee3-57444aab3761" xmlns="http://www.w3.org/2000/svg" viewBox="0 0 32 32"><path d="M16,25c0-4.9624,4.0376-9,9-9,2.82593,0,5.34875,1.31195,7,3.35583V2.99084c0-1.65179-1.33905-2.99084-2.99091-2.99084H2.99091C1.33905,0,0,1.33905,0,2.99084v26.01825c0,1.65186,1.33905,2.99091,2.99091,2.99091h16.36493c-2.04388-1.65125-3.35583-4.17407-3.35583-7Z" style="fill:#112033; stroke-width:0px;"/><g id="uuid-ff89af4b-bd79-4a99-a30f-7ced375bbc71"><path d="M20.39923,17.27911l-1.31702-1.31921-.04004.0401-5.32593,5.32593-.0401.04004c-1.28638,1.28644-1.28638,3.37433,0,4.66071.69879.69879,1.63312,1.00433,2.54803.94391-.14264-.63513-.22418-1.29303-.22418-1.97058,0-3.28021,1.7699-6.14789,4.39923-7.72089Z" style="fill:#21b7b3; stroke-width:0px;"/><path d="M26.97827,16.2262c.06311-.91718-.24194-1.85522-.94305-2.55853l-7.69434-7.69434c-1.28644-1.28644-3.37433-1.28644-4.66071,0-1.28638,1.28638-1.28638,3.37427,0,4.66064l6.6731,6.6731c1.35852-.82379,2.94537-1.30707,4.64673-1.30707.68036,0,1.34076.08246,1.97827.2262Z" style="fill:#fff; stroke-width:0px;"/><circle cx="8.26208" cy="16" r="3.26208" style="fill:#fdce0d; stroke-width:0px;"/></g><circle cx="25" cy="25" r="7" style="fill:#fff; stroke-width:0px;"/><path d="M25,18c-.00708,0-.01392.00104-.021.00104-.00452,0-.00867-.00104-.01318-.00104-.06982,0-.14062.00555-.21143.01245-3.74512.13092-6.75439,3.211-6.75439,6.98755s3.00928,6.85663,6.75439,6.98755c.0708.0069.1416.01245.21143.01245.00452,0,.00867-.00104.01318-.00104.00708,0,.01392.00104.021.00104,3.85938,0,7-3.14062,7-7s-3.14062-7-7-7ZM30.6499,23h-2.73462c-.13916-1.58185-.45264-2.81311-.93042-3.65552,1.70703.60107,3.05957,1.9505,3.66504,3.65552ZM27,25c0,.3504-.01343.67554-.02722,1h-3.94739c-.0127-.32428-.02539-.64862-.02539-1s.0127-.67566.02539-1h3.94739c.01379.32446.02722.64966.02722,1ZM24.97192,30.9986c-.00513,0-.01025-.00073-.01538-.00079-.98523-.00952-1.6438-1.47906-1.86646-3.9978h3.81323c-.23669,2.49469-.92737,3.99243-1.9314,3.9986ZM23.09009,23c.22266-2.51874.88123-3.98828,1.86646-3.9978.00513-.00006.01025-.00079.01538-.00079,1.00403.00616,1.6947,1.50385,1.9314,3.9986h-3.81323ZM22.95874,19.36517c-.41748.76465-.74268,1.92053-.88281,3.63483h-2.72583c.59875-1.6861,1.92822-3.02399,3.60864-3.63483ZM19.09033,24h2.92749c-.01135.31757-.01782.64966-.01782,1s.00647.68243.01782,1h-2.92749c-.05505-.32599-.09033-.65863-.09033-1s.03528-.67401.09033-1ZM19.3501,27h2.72583c.14014,1.71417.46533,2.87018.88281,3.63483-1.68042-.61084-3.00989-1.94873-3.60864-3.63483ZM26.98486,30.65552c.47778-.84241.79126-2.07361.93042-3.65552h2.73462c-.60547,1.70502-1.95801,3.05444-3.66504,3.65552ZM30.90967,26h-2.93091c.0127-.32263.02124-.6532.02124-1s-.00854-.67737-.02124-1h2.93091c.05505.32599.09033.65863.09033,1s-.03528.67401-.09033,1Z" style="fill:#377ab5; stroke-width:0px;"/></svg>