<?xml version="1.0" encoding="UTF-8"?><svg id="uuid-6fbe0477-d365-4675-91d2-f728bff20e46" xmlns="http://www.w3.org/2000/svg" viewBox="0 0 48 48"><path d="M22,36c0-7.71973,6.28027-14,14-14,5.09576,0,9.55096,2.74542,12,6.82611V4.48633c0-2.47772-2.00861-4.48633-4.48633-4.48633H4.48633C2.00861,0,0,2.00861,0,4.48633v39.02734c0,2.47772,2.00861,4.48633,4.48633,4.48633h24.33978c-4.08069-2.44904-6.82611-6.90424-6.82611-12Z" style="fill:#112033; stroke-width:0px;"/><g id="uuid-07106342-16d0-4118-aad1-a298f3bcfd2a"><path d="M28.48328,23.94171l-.05829.05829-.83142.83142c.34045-.2569.69183-.49817,1.05542-.72369l-.16571-.16602Z" style="fill:#21b7b3; stroke-width:0px;"/><path d="M24.83148,27.59351l-4.15332,4.15326-.05829.05829c-1.87109,1.87115-1.87109,4.90808,0,6.77917.5506.5506,1.20703.91919,1.90015,1.14575-.32971-1.18964-.52002-2.43683-.52002-3.72998,0-3.15643,1.0625-6.06226,2.83148-8.40649Z" style="fill:#21b7b3; stroke-width:0px;"/><path d="M39.74658,22.52429c-.22589-.69849-.59558-1.36072-1.1499-1.91681l-11.19177-11.19177c-1.87115-1.87109-4.90808-1.87109-6.77917,0s-1.87115,4.90808,0,6.77917l7.95459,7.95459c2.15417-1.3537,4.69299-2.14948,7.41968-2.14948,1.29913,0,2.55206.19165,3.74658.52429Z" style="fill:#fff; stroke-width:0px;"/><circle cx="12.74484" cy="24" r="4.74484" style="fill:#fdce0d; stroke-width:0px;"/><path d="M36,50c-7.71973,0-14-6.28027-14-14s6.28027-14,14-14,14,6.28027,14,14-6.28027,14-14,14Z" style="fill:#fff; stroke-width:0px;"/></g><circle cx="36" cy="36" r="12" style="fill:#fff; stroke-width:0px;"/><path d="M48,35.99896c0-6.6156-5.38403-11.99805-12.00122-11.9989-.00024,0-.00049-.00006-.00073-.00006s-.00024.00006-.00037.00006c-.00024,0-.00037-.00006-.00061-.00006-4.8302,0-8.99207,2.87579-10.89221,7h-.10486v.21741c-.63989,1.46649-1,3.08197-1,4.78156,0,6.61725,5.38184,12.00104,11.99707,12.00104.00024,0,.00037-.00006.00061-.00006.00012,0,.00012.00006.00037.00006s.00049-.00006.00073-.00006c6.61719-.00085,12.00122-5.38428,12.00122-12.00098ZM45.79822,38h-4.86609c.04297-.66254.06787-1.33173.06787-2.00104,0-1.00812-.05322-2.01617-.15063-2.99896h4.6897c.29858.94727.46094,1.95435.46094,2.99896,0,.68518-.06982,1.35425-.20178,2.00104ZM35.99829,45.99994h-.00049c-.90259-.00031-2.15381-2.28546-2.71033-5.99994h5.42468c-.55713,3.71429-1.80957,5.99945-2.71387,5.99994ZM33.07117,38c-.04468-.63892-.07117-1.30475-.07117-2.00104,0-1.06842.05933-2.06934.15967-2.99896h5.68042c.10059.92963.15991,1.93054.15991,2.99896,0,.69629-.02661,1.36212-.07129,2.00104h-5.85754ZM26,35.99896c0-1.04462.16235-2.0517.46069-2.99896h4.68994c-.09741.98279-.15063,1.99084-.15063,2.99896,0,.66931.0249,1.3385.06787,2.00104h-4.86621c-.13184-.64679-.20166-1.31586-.20166-2.00104ZM35.9978,26.00006h.00049c.82031.00043,1.92798,1.87915,2.5426,4.99994h-5.0824c.61389-3.12091,1.72046-4.99969,2.53931-4.99994ZM44.64685,31h-4.07178c-.30383-1.71844-.77075-3.26782-1.39661-4.47272,2.31995.78088,4.25781,2.38818,5.46838,4.47272ZM32.8208,26.526c-.62549,1.20508-1.09253,2.75494-1.39624,4.474h-4.07227c1.21033-2.08563,3.14844-3.69348,5.46851-4.474ZM26.84082,40h4.42773c.28735,2.11371.80737,4.03882,1.55249,5.47394-2.67944-.90143-4.854-2.90472-5.98022-5.47394ZM39.17822,45.47266c.74536-1.435,1.26562-3.35956,1.55298-5.47266h4.42749c-1.12646,2.56812-3.30103,4.57062-5.98047,5.47266Z" style="fill:#377ab5; stroke-width:0px;"/></svg>