<?xml version="1.0" encoding="utf-8"?>
<!-- Generator: Adobe Illustrator 27.9.0, SVG Export Plug-In . SVG Version: 6.00 Build 0)  -->
<svg version="1.1" id="Layer_1" xmlns="http://www.w3.org/2000/svg" xmlns:xlink="http://www.w3.org/1999/xlink" x="0px" y="0px"
	 viewBox="0 0 962.8 160.3" style="enable-background:new 0 0 962.8 160.3;" xml:space="preserve">
<g>
	<path d="M275,129.2c-7.6-4.4-13.9-11-18-18.8c-4.5-8.6-6.7-18.2-6.5-28c-0.2-9.7,2-19.3,6.5-27.9c4.1-7.8,10.3-14.3,18-18.8
		c16.2-8.9,35.8-8.9,52,0c7.6,4.4,13.9,11,18,18.8c4.5,8.6,6.7,18.2,6.5,27.9c0.2,9.7-2,19.3-6.5,28c-4.1,7.8-10.4,14.3-18,18.8
		C310.8,138.1,291.2,138.1,275,129.2 M323.9,108c5.3-6.5,8-15,8-25.5c0-10.6-2.7-19.1-8-25.5c-5.3-6.5-13-9.7-22.9-9.7
		c-10,0-17.6,3.2-22.9,9.7c-5.3,6.5-8,15-8,25.5s2.7,19.1,8,25.5c5.3,6.5,13,9.7,22.9,9.7C310.9,117.6,318.6,114.4,323.9,108"/>
	<path d="M376.2,31.1h37.5c11,0,19.6,2.6,25.9,7.9c6.3,5.2,9.5,13,9.5,23.2c0,7.1-1.5,13-4.5,17.5c-3.2,4.7-7.7,8.5-12.9,10.9
		l23.2,43.1h-21l-19.8-38.1h-19v38.2h-18.8V31.1z M408.8,79.9c13.8,0,20.7-5.6,20.6-16.7c0-5.4-1.6-9.5-4.7-12.3
		c-3.1-2.8-8.2-4.2-15.2-4.2H395V80L408.8,79.9z"/>
	<polygon points="496.2,49.3 467.2,49.3 467.2,31.1 543.9,31.1 543.9,49.3 514.9,49.3 514.9,133.8 496.2,133.8 	"/>
	<polygon points="564.5,31.1 630.1,31.1 630.1,49.3 583.7,49.3 583.7,71.1 619.7,71.1 619.7,89.3 583.7,89.3 583.7,115.6 
		631.6,115.6 631.6,133.8 564.5,133.8 	"/>
	<path d="M656.5,31.1H694c10.9,0,19.6,2.6,25.9,7.9c6.3,5.2,9.5,13,9.4,23.2c0,7.1-1.5,13-4.5,17.5c-3.2,4.7-7.7,8.5-12.9,10.9
		l23.2,43.1h-21l-19.8-38.1h-19v38.2h-18.8V31.1z M689,79.9c13.8,0,20.8-5.6,20.8-16.7c0-5.4-1.6-9.5-4.7-12.3
		c-3.1-2.8-8.2-4.2-15.2-4.2h-14.6V80L689,79.9z"/>
	<path d="M756.3,31.1h37.5c10.9,0,19.6,2.6,25.9,7.9c6.3,5.2,9.5,13,9.5,23.2c0,7.1-1.5,13-4.6,17.5c-3.2,4.7-7.7,8.5-12.9,10.9
		l23.1,43.1h-21l-19.7-38.1H775v38.2h-18.8V31.1z M788.8,79.9c13.8,0,20.7-5.6,20.7-16.7c0-5.4-1.6-9.5-4.7-12.3
		c-3.1-2.8-8.2-4.2-15.2-4.2H775V80L788.8,79.9z"/>
	<path d="M873.6,129.2c-7.6-4.4-13.9-11-18-18.8c-4.5-8.6-6.7-18.2-6.5-28c-0.2-9.7,2-19.3,6.5-27.9c4.1-7.8,10.3-14.3,18-18.8
		c16.2-8.9,35.8-8.9,52,0c7.6,4.4,13.9,11,18,18.8c4.5,8.6,6.7,18.2,6.5,27.9c0.2,9.7-2,19.3-6.5,28c-4.1,7.8-10.3,14.3-18,18.8
		C909.4,138.1,889.8,138.1,873.6,129.2 M922.5,108c5.3-6.5,8-15,8-25.5s-2.7-19.1-8-25.5c-5.3-6.5-13-9.7-22.9-9.7
		c-10,0-17.6,3.2-22.9,9.7c-5.3,6.5-8,15-8,25.5s2.7,19.1,8,25.5c5.3,6.5,13,9.7,22.9,9.7C909.5,117.6,917.2,114.4,922.5,108"/>
	<polygon points="173.8,31.1 237,31.1 237,49.3 192.5,49.3 192.5,71.1 226.8,71.1 226.8,89.3 192.5,89.3 192.5,133.8 173.8,133.8 	
		"/>
</g>
<g>
	<path d="M130.6,67.1L130.6,67.1L87.4,23.9c-7.2-7.2-18.9-7.2-26.1,0v0c-7.2,7.2-7.2,18.9,0,26.1l30.1,30.1l0,0L61.5,110l-0.2,0.2
		c-7.2,7.2-7.2,18.9,0,26.1c7.2,7.2,18.9,7.2,26.1,0l17-17c0,0,0,0,0,0l0,0c0,0,0,0,0,0l26.1-26.1C137.8,86,137.8,74.3,130.6,67.1z"
		/>
	<ellipse transform="matrix(0.9732 -0.2298 0.2298 0.9732 -17.5845 9.2533)" cx="30.9" cy="80.1" rx="18.3" ry="18.3"/>
</g>
</svg>
