<?xml version="1.0" encoding="utf-8"?>
<!-- Generator: Adobe Illustrator 27.9.0, SVG Export Plug-In . SVG Version: 6.00 Build 0)  -->
<svg version="1.1" id="Layer_1" xmlns="http://www.w3.org/2000/svg" xmlns:xlink="http://www.w3.org/1999/xlink" x="0px" y="0px"
	 viewBox="0 0 576 576" style="enable-background:new 0 0 576 576;" xml:space="preserve">
<style type="text/css">
	.st0{fill:#FFFFFF;}
	.st1{fill:#112033;}
	.st2{fill:#FDCE0D;}
</style>
<path class="st0" d="M423,345.2L364.9,287l-1,1L231,420.9l-1,1c-32.1,32.1-32.1,84.2,0,116.3l0,0c32.1,32.1,84.2,32.1,116.3,0
	l75.7-75.7c0,0,0,0,0,0l1-1C455.2,429.4,455.2,377.3,423,345.2z"/>
<path class="st1" d="M538.4,229.8L538.4,229.8l-192-192c-32.1-32.1-84.2-32.1-116.3,0l0,0c-32.1,32.1-32.1,84.2,0,116.3l192,192
	c32.1,32.1,32.1,84.2,0,116.3l116.3-116.3l0,0C570.5,314,570.5,262,538.4,229.8z"/>
<ellipse class="st2" cx="94.9" cy="288" rx="81.4" ry="81.4"/>
</svg>
