<?xml version="1.0" encoding="utf-8"?>
<!-- Generator: Adobe Illustrator 27.9.0, SVG Export Plug-In . SVG Version: 6.00 Build 0)  -->
<svg version="1.1" id="Layer_1" xmlns="http://www.w3.org/2000/svg" xmlns:xlink="http://www.w3.org/1999/xlink" x="0px" y="0px"
	 viewBox="0 0 838.4 160.3" style="enable-background:new 0 0 838.4 160.3;" xml:space="preserve">
<g>
	<g>
		<path d="M119,129.2c-7.6-4.4-13.9-11-18-18.8c-4.5-8.6-6.7-18.2-6.5-28c-0.2-9.7,2-19.3,6.5-27.9c4.1-7.8,10.3-14.3,18-18.8
			c16.2-8.9,35.8-8.9,52,0c7.6,4.4,13.9,11,18,18.8c4.5,8.6,6.7,18.2,6.5,27.9c0.2,9.7-2,19.3-6.5,28c-4.1,7.8-10.4,14.3-18,18.8
			C154.9,138.1,135.2,138.1,119,129.2 M168,108c5.3-6.5,8-15,8-25.5c0-10.6-2.7-19.1-8-25.5c-5.3-6.5-13-9.7-22.9-9.7
			c-10,0-17.6,3.2-22.9,9.7c-5.3,6.5-8,15-8,25.5c0,10.6,2.7,19.1,8,25.5c5.3,6.5,13,9.7,22.9,9.7C155,117.6,162.7,114.4,168,108"/>
		<path d="M220.3,31.1h37.5c11,0,19.6,2.6,25.9,7.9c6.3,5.2,9.5,13,9.5,23.2c0,7.1-1.5,13-4.5,17.5c-3.2,4.7-7.7,8.5-12.9,10.9
			l23.2,43.1h-21l-19.8-38.1h-19v38.2h-18.8V31.1z M252.8,79.9c13.8,0,20.7-5.6,20.6-16.7c0-5.4-1.6-9.5-4.7-12.3s-8.2-4.2-15.2-4.2
			h-14.5V80L252.8,79.9z"/>
		<polygon points="340.3,49.3 311.2,49.3 311.2,31.1 388,31.1 388,49.3 359,49.3 359,133.8 340.3,133.8 		"/>
		<polygon points="408.6,31.1 474.2,31.1 474.2,49.3 427.8,49.3 427.8,71.1 463.8,71.1 463.8,89.3 427.8,89.3 427.8,115.6 
			475.7,115.6 475.7,133.8 408.6,133.8 		"/>
		<path d="M500.6,31.1h37.5c10.9,0,19.6,2.6,25.9,7.9c6.3,5.2,9.5,13,9.4,23.2c0,7.1-1.5,13-4.5,17.5c-3.2,4.7-7.7,8.5-12.9,10.9
			l23.2,43.1h-21l-19.8-38.1h-19v38.2h-18.8V31.1z M533.1,79.9c13.8,0,20.8-5.6,20.8-16.7c0-5.4-1.6-9.5-4.7-12.3
			c-3.1-2.8-8.2-4.2-15.2-4.2h-14.6V80L533.1,79.9z"/>
		<path d="M600.4,31.1h37.5c10.9,0,19.6,2.6,25.9,7.9c6.3,5.2,9.5,13,9.5,23.2c0,7.1-1.5,13-4.6,17.5c-3.2,4.7-7.7,8.5-12.9,10.9
			l23.1,43.1h-21l-19.7-38.1h-19.1v38.2h-18.8V31.1z M632.9,79.9c13.8,0,20.7-5.6,20.7-16.7c0-5.4-1.6-9.5-4.7-12.3
			s-8.2-4.2-15.2-4.2h-14.5V80L632.9,79.9z"/>
		<path d="M717.6,129.2c-7.6-4.4-13.9-11-18-18.8c-4.5-8.6-6.7-18.2-6.5-28c-0.2-9.7,2-19.3,6.5-27.9c4.1-7.8,10.3-14.3,18-18.8
			c16.2-8.9,35.8-8.9,52,0c7.6,4.4,13.9,11,18,18.8c4.5,8.6,6.7,18.2,6.5,27.9c0.2,9.7-2,19.3-6.5,28c-4.1,7.8-10.3,14.3-18,18.8
			C753.5,138.1,733.9,138.1,717.6,129.2 M766.6,108c5.3-6.5,8-15,8-25.5c0-10.6-2.7-19.1-8-25.5c-5.3-6.5-13-9.7-22.9-9.7
			c-10,0-17.6,3.2-22.9,9.7c-5.3,6.5-8,15-8,25.5s2.7,19.1,8,25.5c5.3,6.5,13,9.7,22.9,9.7C753.6,117.6,761.3,114.4,766.6,108"/>
		<polygon points="17.9,31.1 81,31.1 81,49.3 36.6,49.3 36.6,71.1 70.9,71.1 70.9,89.3 36.6,89.3 36.6,133.8 17.9,133.8 		"/>
	</g>
</g>
<g>
	<path d="M805,55.2c-2-1.2-3.6-2.8-4.7-4.9c-1.1-2.1-1.7-4.6-1.7-7.3c0-2.8,0.6-5.2,1.7-7.3c1.1-2.1,2.7-3.7,4.7-4.9
		c2-1.1,4.3-1.7,6.8-1.7c2.5,0,4.8,0.6,6.8,1.7c2,1.1,3.6,2.8,4.7,4.9c1.1,2.1,1.7,4.6,1.7,7.3c0,2.8-0.6,5.2-1.7,7.3
		c-1.1,2.1-2.7,3.7-4.7,4.9c-2,1.2-4.3,1.7-6.8,1.7C809.3,56.9,807,56.3,805,55.2z M817.9,53.5c1.7-1,2.9-2.5,3.7-4.3
		c0.8-1.8,1.2-3.9,1.2-6.2c0-2.3-0.4-4.4-1.2-6.2c-0.8-1.8-2.1-3.2-3.7-4.3c-1.7-1-3.7-1.6-6.1-1.6c-2.4,0-4.4,0.5-6.1,1.6
		c-1.7,1-2.9,2.5-3.7,4.3c-0.8,1.8-1.3,3.9-1.3,6.2c0,2.3,0.4,4.4,1.3,6.2c0.8,1.8,2.1,3.3,3.7,4.3c1.7,1,3.7,1.6,6.1,1.6
		C814.3,55,816.3,54.5,817.9,53.5z M806.9,35.9h5c1.5,0,2.7,0.3,3.5,1c0.8,0.7,1.2,1.7,1.2,3.1c0,1.7-0.8,3-2.3,3.8l3,5.7h-2.8
		l-2.5-5h-2.5v5h-2.6V35.9z M811.7,42.2c0.7,0,1.2-0.2,1.6-0.6c0.4-0.4,0.6-0.9,0.6-1.6c0-0.7-0.2-1.2-0.6-1.5
		c-0.4-0.4-0.9-0.6-1.6-0.6h-2.1v4.2H811.7z"/>
</g>
</svg>
