<?xml version="1.0" encoding="utf-8"?>
<!-- Generator: Adobe Illustrator 27.5.0, SVG Export Plug-In . SVG Version: 6.00 Build 0)  -->
<svg version="1.1" id="Layer_1" xmlns="http://www.w3.org/2000/svg" xmlns:xlink="http://www.w3.org/1999/xlink" x="0px" y="0px"
	 viewBox="0 0 462.5 97.9" style="enable-background:new 0 0 462.5 97.9;" xml:space="preserve">
<style type="text/css">
	.st0{fill:#FFFFFF;}
</style>
<g>
	<g>
		<path class="st0" d="M10.5,12.6h26.4c17.6,0,26.4,8,26.4,24c0,8.3-2.2,14.4-6.7,18.4c-4.5,4-10.9,6-19.4,6H24.1v25.8H10.5V12.6z
			 M35.6,49.7c4.7,0,8.1-1.1,10.4-3.2c2.3-2.1,3.4-5.4,3.4-9.8c0-4.4-1.2-7.6-3.5-9.7C43.7,25,40.1,24,35.3,24H24.1v25.8H35.6z"/>
		<path class="st0" d="M79,12.6h27.1c7.9,0,14.2,1.9,18.7,5.7c4.6,3.8,6.8,9.4,6.8,16.8c0,5.2-1.1,9.4-3.3,12.7s-5.3,5.9-9.3,7.9
			l16.7,31.2h-15.2l-14.3-27.6h-0.5H92.5v27.6H79V12.6z M102.5,47.9c10,0,14.9-4,14.9-12.1c0-3.9-1.1-6.8-3.4-8.9c-2.3-2-5.9-3-11-3
			H92.5v24H102.5z"/>
		<path class="st0" d="M163.9,83.5c-5.5-3.2-9.9-7.7-13-13.6c-3.1-5.8-4.7-12.6-4.7-20.2s1.6-14.4,4.7-20.2
			c3.1-5.8,7.5-10.4,13-13.6c5.5-3.2,11.8-4.8,18.8-4.8s13.3,1.6,18.8,4.8c5.5,3.2,9.9,7.7,13,13.6c3.1,5.8,4.7,12.6,4.7,20.2
			s-1.6,14.4-4.7,20.2c-3.1,5.8-7.5,10.4-13,13.6c-5.5,3.2-11.8,4.8-18.8,4.8S169.5,86.7,163.9,83.5z M199.3,68.2
			c3.9-4.7,5.8-10.8,5.8-18.4s-1.9-13.8-5.8-18.4c-3.9-4.7-9.4-7-16.6-7s-12.7,2.3-16.6,7c-3.9,4.7-5.8,10.8-5.8,18.4
			s1.9,13.8,5.8,18.4c3.9,4.7,9.4,7,16.6,7S195.5,72.8,199.3,68.2z"/>
		<path class="st0" d="M236.5,12.6h45.7v13.1H250v15.8h24.8v13.1H250v32.1h-13.6V12.6z"/>
		<path class="st0" d="M297.4,12.6h45.7v13.1H311v15.8h24.8v13.1H311v32.1h-13.6V12.6z"/>
		<path class="st0" d="M358.4,12.6h13.6v74.2h-13.6V12.6z"/>
		<path class="st0" d="M411.2,48.8l-24.7-36.1h15.1l17.1,25.2l17.1-25.2h15.1L426,48.8l26,38.1h-15.1l-18.3-27l-18.3,27h-15.1
			L411.2,48.8z"/>
	</g>
</g>
</svg>
