<?xml version="1.0" encoding="utf-8"?>
<!-- Generator: Adobe Illustrator 27.9.0, SVG Export Plug-In . SVG Version: 6.00 Build 0)  -->
<svg version="1.1" id="Layer_1" xmlns="http://www.w3.org/2000/svg" xmlns:xlink="http://www.w3.org/1999/xlink" x="0px" y="0px"
	 viewBox="0 0 815.2 160.3" style="enable-background:new 0 0 815.2 160.3;" xml:space="preserve">
<style type="text/css">
	.st0{fill:#FFFFFF;}
</style>
<g>
	<g>
		<path class="st0" d="M173.4,30.7h36.9c24.6,0,36.9,11.2,36.9,33.4c0,11.5-3.1,20.1-9.3,25.8c-6.2,5.6-15.2,8.4-27.1,8.4h-18.4v36
			h-18.9V30.7z M208.4,82.5c6.5,0,11.4-1.5,14.6-4.4c3.2-3,4.8-7.5,4.8-13.6c0-6.1-1.6-10.6-4.9-13.5c-3.3-2.9-8.2-4.4-14.9-4.4
			h-15.7v36H208.4z"/>
		<path class="st0" d="M269,30.7h37.9c11,0,19.8,2.6,26.1,7.9c6.4,5.3,9.5,13.1,9.5,23.5c0,7.2-1.5,13.1-4.6,17.7
			c-3.1,4.6-7.4,8.3-13,11l23.4,43.5h-21.2l-20-38.5h-0.7h-18.5v38.5H269V30.7z M301.8,80c13.9,0,20.9-5.6,20.9-16.9
			c0-5.4-1.6-9.5-4.7-12.4c-3.2-2.8-8.3-4.2-15.4-4.2h-14.7V80H301.8z"/>
		<path class="st0" d="M387.6,129.6c-7.7-4.5-13.8-10.8-18.2-18.9c-4.4-8.1-6.6-17.5-6.6-28.2c0-10.7,2.2-20.1,6.6-28.2
			c4.4-8.1,10.5-14.5,18.2-18.9c7.7-4.5,16.5-6.7,26.3-6.7c9.8,0,18.5,2.2,26.3,6.7c7.7,4.5,13.8,10.8,18.2,18.9
			c4.4,8.1,6.6,17.5,6.6,28.2c0,10.7-2.2,20.1-6.6,28.2c-4.4,8.1-10.5,14.5-18.2,18.9c-7.7,4.5-16.5,6.7-26.3,6.7
			C404.1,136.4,395.3,134.1,387.6,129.6z M437,108.2c5.4-6.5,8.1-15.1,8.1-25.8c0-10.7-2.7-19.2-8.1-25.8
			c-5.4-6.5-13.1-9.8-23.2-9.8c-10.1,0-17.8,3.3-23.2,9.8c-5.4,6.5-8.1,15.1-8.1,25.8c0,10.7,2.7,19.2,8.1,25.8
			c5.4,6.5,13.1,9.8,23.2,9.8C423.9,118,431.6,114.7,437,108.2z"/>
		<path class="st0" d="M488.9,30.7h63.8V49h-44.8v22.1h34.6v18.4h-34.6v44.8h-18.9V30.7z"/>
		<path class="st0" d="M574,30.7h63.8V49h-44.8v22.1h34.6v18.4h-34.6v44.8H574V30.7z"/>
		<path class="st0" d="M659.1,30.7H678v103.6h-18.9V30.7z"/>
		<path class="st0" d="M732.8,81.1l-34.5-50.5h21l23.8,35.2L767,30.7h21l-34.5,50.5l36.3,53.1h-21l-25.6-37.7l-25.6,37.7h-21
			L732.8,81.1z"/>
	</g>
</g>
<g>
	<path class="st0" d="M130.3,67.7L87.3,24.6c-7.2-7.2-18.9-7.2-26.1,0h0c-7.2,7.2-7.2,18.9,0,26.1l30,30l-29.8,29.8l-0.2,0.2
		c-7.2,7.2-7.2,18.9,0,26.1v0c7.2,7.2,18.9,7.2,26.1,0l17-17c0,0,0,0,0,0l26.1-26.1v0C137.5,86.6,137.5,74.9,130.3,67.7z"/>
	<circle class="st0" cx="30.9" cy="80.7" r="18.2"/>
</g>
</svg>
