<?xml version="1.0" encoding="utf-8"?>
<!-- Generator: Adobe Illustrator 27.9.0, SVG Export Plug-In . SVG Version: 6.00 Build 0)  -->
<svg version="1.1" id="Layer_1" xmlns="http://www.w3.org/2000/svg" xmlns:xlink="http://www.w3.org/1999/xlink" x="0px" y="0px"
	 viewBox="0 0 975.6 275" style="enable-background:new 0 0 975.6 275;" xml:space="preserve">
<g>
	<g>
		<path d="M312.3,24.1h38.3c25.6,0,38.3,11.6,38.3,34.8c0,12-3.2,20.9-9.7,26.8c-6.5,5.9-15.9,8.8-28.2,8.8H332v37.4h-19.7V24.1z
			 M348.8,78c6.8,0,11.8-1.5,15.2-4.6c3.3-3.1,5-7.8,5-14.2c0-6.4-1.7-11.1-5.1-14.1c-3.4-3-8.6-4.5-15.6-4.5H332V78H348.8z"/>
		<path d="M411.8,24.1h39.4c11.5,0,20.6,2.7,27.2,8.2c6.6,5.5,9.9,13.6,9.9,24.4c0,7.5-1.6,13.6-4.8,18.4
			c-3.2,4.8-7.7,8.6-13.6,11.5l24.3,45.3h-22l-20.8-40h-0.8h-19.2v40h-19.7V24.1z M446,75.4c14.5,0,21.7-5.9,21.7-17.6
			c0-5.6-1.6-9.9-4.9-12.9c-3.3-2.9-8.6-4.4-16-4.4h-15.2v34.8H446z"/>
		<path d="M535.2,127c-8.1-4.7-14.4-11.2-18.9-19.7c-4.6-8.5-6.9-18.2-6.9-29.3s2.3-20.9,6.9-29.3c4.6-8.5,10.9-15,18.9-19.7
			c8.1-4.7,17.2-7,27.3-7c10.2,0,19.3,2.3,27.3,7c8.1,4.7,14.4,11.2,18.9,19.7c4.6,8.5,6.9,18.2,6.9,29.3s-2.3,20.9-6.9,29.3
			c-4.6,8.5-10.9,15-18.9,19.7c-8.1,4.7-17.2,7-27.3,7C552.4,134,543.3,131.7,535.2,127z M586.7,104.8c5.6-6.8,8.4-15.7,8.4-26.8
			s-2.8-20-8.4-26.8c-5.6-6.8-13.6-10.2-24.1-10.2c-10.5,0-18.5,3.4-24.1,10.2c-5.6,6.8-8.4,15.7-8.4,26.8s2.8,20,8.4,26.8
			c5.6,6.8,13.6,10.2,24.1,10.2C573.1,114.9,581.1,111.6,586.7,104.8z"/>
		<path d="M640.7,24.1H707v19.1h-46.7v22.9h36v19.1h-36v46.7h-19.7V24.1z"/>
		<path d="M729.2,24.1h66.4v19.1h-46.7v22.9h36v19.1h-36v46.7h-19.7V24.1z"/>
		<path d="M817.8,24.1h19.7v107.8h-19.7V24.1z"/>
		<path d="M894.4,76.6l-35.9-52.5h21.9l24.8,36.7L930,24.1h21.9L916,76.6l37.7,55.3h-21.9l-26.6-39.3l-26.6,39.3h-21.9L894.4,76.6z"
			/>
		<path d="M308.6,179.2h43.6v8.8h-33.9v20.9h26.1v8.8h-26.1v32.9h-9.7V179.2z"/>
		<path d="M377.4,247.5c-5.3-3.1-9.5-7.4-12.5-13c-3-5.6-4.5-12.1-4.5-19.5c0-7.4,1.5-13.9,4.5-19.5c3-5.6,7.2-9.9,12.5-13
			c5.3-3.1,11.4-4.6,18.2-4.6s12.9,1.5,18.2,4.6c5.3,3.1,9.5,7.4,12.5,13c3,5.6,4.5,12.1,4.5,19.5c0,7.4-1.5,13.9-4.5,19.5
			c-3,5.6-7.2,9.9-12.5,13c-5.3,3.1-11.4,4.6-18.2,4.6S382.8,250.5,377.4,247.5z M409.2,239c3.7-2.4,6.5-5.7,8.4-9.9
			c1.9-4.2,2.8-8.9,2.8-14.2s-0.9-10-2.8-14.2c-1.9-4.2-4.7-7.5-8.4-9.9c-3.7-2.4-8.3-3.6-13.6-3.6c-5.3,0-9.8,1.2-13.6,3.6
			c-3.7,2.4-6.5,5.7-8.4,9.9c-1.9,4.2-2.8,8.9-2.8,14.2s0.9,10,2.8,14.2c1.9,4.2,4.7,7.5,8.4,9.9c3.7,2.4,8.3,3.6,13.6,3.6
			C400.9,242.7,405.5,241.5,409.2,239z"/>
		<path d="M445.6,179.2h23.2c7.8,0,13.8,1.8,18.2,5.4c4.4,3.6,6.5,9,6.5,16.4c0,9.5-4.1,16.2-12.4,20.1l16,29.6h-11.8l-14.5-27.8
			h-0.5h-14.4v27.8h-10.2V179.2z M468.7,214.1c4.8,0,8.4-1.2,10.9-3.5c2.5-2.3,3.8-5.5,3.8-9.7c0-4.1-1.2-7.4-3.7-9.6
			c-2.5-2.3-6.1-3.4-11-3.4h-12.9v26.2H468.7z"/>
		<path d="M523.9,188H503v-8.8h51.3v8.8h-20.8v62.6h-9.7V188z"/>
		<path d="M566.6,179.2h43.6v8.8h-33.9v20.9h26.9v8.8h-26.9v24.2h34.8v8.8h-44.5V179.2z"/>
		<path d="M625.6,179.2h23.2c7.8,0,13.8,1.8,18.2,5.4c4.4,3.6,6.5,9,6.5,16.4c0,9.5-4.1,16.2-12.4,20.1l16,29.6h-11.8l-14.5-27.8
			h-0.5h-14.4v27.8h-10.2V179.2z M648.7,214.1c4.8,0,8.4-1.2,10.9-3.5c2.5-2.3,3.8-5.5,3.8-9.7c0-4.1-1.2-7.4-3.7-9.6
			c-2.5-2.3-6.1-3.4-11-3.4h-12.9v26.2H648.7z"/>
		<path d="M689.7,179.2h23.2c7.8,0,13.8,1.8,18.2,5.4c4.4,3.6,6.5,9,6.5,16.4c0,9.5-4.1,16.2-12.4,20.1l16,29.6h-11.8l-14.5-27.8
			h-0.5h-14.4v27.8h-10.2V179.2z M712.8,214.1c4.8,0,8.4-1.2,10.9-3.5c2.5-2.3,3.8-5.5,3.8-9.7c0-4.1-1.2-7.4-3.7-9.6
			c-2.5-2.3-6.1-3.4-11-3.4h-12.9v26.2H712.8z"/>
		<path d="M766.7,247.5c-5.3-3.1-9.5-7.4-12.5-13c-3-5.6-4.5-12.1-4.5-19.5c0-7.4,1.5-13.9,4.5-19.5c3-5.6,7.2-9.9,12.5-13
			c5.3-3.1,11.4-4.6,18.2-4.6s12.9,1.5,18.2,4.6c5.3,3.1,9.5,7.4,12.5,13c3,5.6,4.5,12.1,4.5,19.5c0,7.4-1.5,13.9-4.5,19.5
			c-3,5.6-7.2,9.9-12.5,13c-5.3,3.1-11.4,4.6-18.2,4.6S772,250.5,766.7,247.5z M798.4,239c3.7-2.4,6.5-5.7,8.4-9.9
			c1.9-4.2,2.8-8.9,2.8-14.2s-0.9-10-2.8-14.2c-1.9-4.2-4.7-7.5-8.4-9.9c-3.7-2.4-8.3-3.6-13.6-3.6c-5.3,0-9.8,1.2-13.6,3.6
			c-3.7,2.4-6.5,5.7-8.4,9.9c-1.9,4.2-2.8,8.9-2.8,14.2s0.9,10,2.8,14.2c1.9,4.2,4.7,7.5,8.4,9.9c3.7,2.4,8.3,3.6,13.6,3.6
			C790.2,242.7,794.7,241.5,798.4,239z"/>
	</g>
</g>
<g>
	<path d="M236.3,115.3L236.3,115.3l-81.2-81.2c-13.6-13.6-35.6-13.6-49.2,0h0c-13.6,13.6-13.6,35.6,0,49.2l56.6,56.6l-56.2,56.2
		l-0.4,0.4c-13.6,13.6-13.6,35.6,0,49.2l0,0c13.6,13.6,35.6,13.6,49.2,0l32-32c0,0,0,0,0,0l0.4-0.4l48.8-48.8h0
		C249.8,150.9,249.8,128.9,236.3,115.3z"/>
	<ellipse transform="matrix(0.7071 -0.7071 0.7071 0.7071 -84.6348 75.4125)" cx="48.7" cy="139.9" rx="34.4" ry="34.4"/>
</g>
</svg>
