<?xml version="1.0" encoding="UTF-8"?>
<svg id="eea513b5-0ae7-4a5d-8cf8-68e1b139bf13" xmlns="http://www.w3.org/2000/svg" version="1.1" viewBox="0 0 32 32">
  <defs>
    <style>
      .cls-1 {
        fill: #000;
      }

      .cls-1, .cls-2, .cls-3 {
        stroke-width: 0px;
      }

      .cls-2 {
        fill: #fff;
      }

      .cls-3 {
        fill: #21b7b3;
      }
    </style>
  </defs>
  <path class="cls-1" d="M13.4,23.2c-.1,0-.3,0-.4-.1l-4.6-4.6c-.2-.2-.2-.5,0-.7s.5-.2.7,0l4.6,4.6c.2.2.2.5,0,.7,0,.1-.2.1-.3.1Z"/>
  <g>
    <path class="cls-2" d="M5.3,28.9c-.6.6-1.7.6-2.3,0s-.6-1.7,0-2.3l7.1-7.1,2.3,2.3-7.1,7.1Z"/>
    <path class="cls-1" d="M4.1,29.9c-.5,0-1.1-.2-1.5-.6-.8-.8-.8-2.2,0-3l7.1-7.1c.2-.2.5-.2.7,0l2.3,2.3c.1.1.1.2.1.4s-.1.3-.1.4l-7.1,7.1h0c-.4.3-.9.5-1.5.5ZM5.3,28.9h0ZM10.1,20.2l-6.8,6.8c-.4.4-.4,1.1,0,1.6.4.4,1.1.4,1.6,0l6.7-6.7-1.5-1.7Z"/>
  </g>
  <path class="cls-1" d="M11.2,21.2c-.1,0-.3,0-.4-.1-.2-.2-.2-.5,0-.7l13.8-13.7c.2-.2.5-.2.7,0s.2.5,0,.7l-13.7,13.6c-.1.1-.3.2-.4.2Z"/>
  <g>
    <rect class="cls-2" x="24.5" y="3.9" width="4.6" height="2.3" transform="translate(4.3 20.4) rotate(-45)"/>
    <path class="cls-1" d="M26,8c-.1,0-.3,0-.4,0l-1.6-1.7c-.2-.2-.2-.5,0-.7l3.2-3.2c.2-.2.5-.2.7,0l1.6,1.6c.2.2.2.5,0,.7l-3.2,3.2c-.1,0-.2.2-.3.2ZM25.1,5.9l.9.9,2.5-2.5-.9-.9-2.5,2.5Z"/>
  </g>
  <g>
    <path class="cls-3" d="M12.5,4.2c-1.7-1.7-4.4-2.2-6.6-1l2.8,2.8v2.3h-2.4l-2.9-2.8c-1.4,2.8-.3,6.3,2.5,7.7,1.6.8,3.6.8,5.2,0l15.5,15.5c.7.7,1.8.7,2.5,0s.7-1.8,0-2.5h0l-15.6-15.4c1.1-2.2.7-4.9-1-6.6Z"/>
    <path class="cls-1" d="M27.8,29.7c-.6,0-1.2-.2-1.6-.7l-15.3-15.2c-1.7.7-3.7.7-5.3-.2-3-1.6-4.3-5.3-2.7-8.4.1,0,.3-.1.4-.2.2,0,.3,0,.4,0l2.8,2.7h1.8v-1.6l-2.8-2.7c0,0-.2-.3,0-.5,0-.2,0-.3.3-.4,2.4-1.2,5.3-.8,7.2,1.1h0c1.8,1.8,2.3,4.5,1.3,6.9l15.2,15.2c.9.9.9,2.3,0,3.2-.5.5-1.1.7-1.6.7ZM11,12.7c.1,0,.3.1.4.1l15.5,15.5c.5.5,1.3.5,1.8,0s.4-.5.4-.9-.1-.6-.4-.9l-15.5-15.4c-.2-.1-.2-.4,0-.5,1-2,.6-4.4-.9-6h0c-1.4-1.4-3.5-1.9-5.4-1.2l2.4,2.4v2.5c0,.3-.2.5-.5.5h-2.4c-.1,0-.3,0-.4-.1l-2.3-2.3c-.9,2.4.2,5.2,2.5,6.4,1.5.8,3.2.8,4.7,0,.1,0,.2-.1.2-.1Z"/>
  </g>
</svg>