<?xml version="1.0" encoding="UTF-8"?>
<svg id="uuid-137572d7-8369-41ad-9e4d-a7556bab7a81" xmlns="http://www.w3.org/2000/svg" version="1.1" viewBox="0 0 24 24">
  <defs>
    <style>
      .cls-1 {
        fill: #000;
      }

      .cls-1, .cls-2, .cls-3 {
        stroke-width: 0px;
      }

      .cls-4, .cls-5, .cls-6, .cls-7 {
        stroke: #000;
      }

      .cls-4, .cls-5, .cls-8 {
        stroke-width: .8px;
      }

      .cls-4, .cls-2, .cls-8, .cls-7 {
        fill: none;
      }

      .cls-4, .cls-8, .cls-7 {
        stroke-linecap: round;
        stroke-linejoin: round;
      }

      .cls-5, .cls-6 {
        fill: #21b7b3;
        stroke-miterlimit: 10;
      }

      .cls-6, .cls-7 {
        stroke-width: .5px;
      }

      .cls-8 {
        stroke: #21b7b3;
      }

      .cls-3 {
        fill: #fff;
      }
    </style>
  </defs>
  <path class="cls-1" d="M7,0h-3.5c-.3,0-.5.3-.5.6v22.9c0,.3.2.6.5.6h17c.3,0,.5-.3.5-.6V.6c0-.3-.2-.6-.5-.6H7ZM20,1.1v21.7H4V1.1h16Z"/>
  <polyline class="cls-3" points="6.5 1 4 1 4 23 20 23 20 1 17.5 1"/>
  <rect class="cls-2" width="24" height="24"/>
  <path class="cls-1" d="M17.8,14.2h-6.6c-.3,0-.5-.2-.5-.5s.2-.5.5-.5h6.6c.3,0,.5.2.5.5s-.2.5-.5.5Z"/>
  <path class="cls-1" d="M17.7,20.1h-6.6c-.3,0-.5-.2-.5-.5s.2-.5.5-.5h6.6c.3,0,.5.2.5.5s-.2.5-.5.5Z"/>
  <rect class="cls-6" x="6" y="18.1" width="3" height="2.9"/>
  <g>
    <polyline class="cls-8" points="6.7 13.7 7.6 14.3 8.9 12.4"/>
    <polygon class="cls-7" points="7.8 15 6 13.9 6.5 13 7.5 13.7 8.7 11.8 9.6 12.3 7.8 15"/>
  </g>
  <g>
    <circle class="cls-5" cx="14.5" cy="6.4" r="2.7"/>
    <polyline class="cls-4" points="14.3 4.6 14.3 6.4 15.8 6.4"/>
  </g>
</svg>