<?xml version="1.0" encoding="UTF-8"?>
<svg id="b1656e98-94f3-4ebc-b753-8d40cc5d964a" xmlns="http://www.w3.org/2000/svg" version="1.1" viewBox="0 0 16 16">
  <defs>
    <style>
      .cls-1 {
        fill: #000;
      }

      .cls-1, .cls-2, .cls-3 {
        stroke-width: 0px;
      }

      .cls-2 {
        fill: #fff;
      }

      .cls-3 {
        fill: #21b7b3;
      }
    </style>
  </defs>
  <g>
    <path class="cls-2" d="M7.9,9.5c-2.5,0-4.5-2-4.5-4.5S5.4.5,7.9.5s4.5,2,4.5,4.5-2,4.5-4.5,4.5Z"/>
    <path class="cls-1" d="M7.9,1c2.2,0,4,1.8,4,4s-1.8,4-4,4-4-1.8-4-4S5.7,1,7.9,1M7.9,0C5.1,0,2.9,2.2,2.9,5s2.2,5,5,5,5-2.2,5-5S10.7,0,7.9,0h0Z"/>
  </g>
  <g>
    <path class="cls-2" d="M.6,15.5c.7-3.5,3.8-6,7.3-6s6.6,2.5,7.3,6H.6Z"/>
    <path class="cls-1" d="M7.9,10c3.1,0,5.8,2.1,6.7,5H1.2c.9-2.9,3.6-5,6.7-5M7.9,9c-4,0-7.4,3.1-7.9,7h15.9c-.5-3.9-3.9-7-8-7h0Z"/>
  </g>
  <g>
    <circle class="cls-3" cx="4.5" cy="13" r="1.1"/>
    <path class="cls-1" d="M4.5,12.3c.4,0,.8.3.8.8s-.3.8-.8.8-.7-.4-.7-.9.3-.7.7-.7M4.5,11.5c-.8,0-1.5.7-1.5,1.5s.7,1.5,1.5,1.5,1.5-.7,1.5-1.5-.7-1.5-1.5-1.5h0Z"/>
  </g>
  <g>
    <circle class="cls-3" cx="8" cy="13" r="1.1"/>
    <path class="cls-1" d="M8,12.3c.4,0,.8.3.8.8s-.4.7-.8.7-.7-.3-.7-.8.3-.7.7-.7M8,11.5c-.8,0-1.5.7-1.5,1.5s.7,1.5,1.5,1.5,1.5-.7,1.5-1.5-.7-1.5-1.5-1.5h0Z"/>
  </g>
  <g>
    <circle class="cls-3" cx="11.4" cy="13" r="1.1"/>
    <path class="cls-1" d="M11.4,12.3c.4,0,.8.3.8.8s-.3.8-.8.8-.8-.3-.8-.8.4-.8.8-.8M11.4,11.5c-.8,0-1.5.7-1.5,1.5s.7,1.5,1.5,1.5,1.5-.7,1.5-1.5-.6-1.5-1.5-1.5h0Z"/>
  </g>
</svg>