<?xml version="1.0" encoding="UTF-8"?>
<svg id="a3288e32-823a-4d76-8ba5-c6b308576be3" xmlns="http://www.w3.org/2000/svg" version="1.1" viewBox="0 0 16 16">
  <defs>
    <style>
      .cls-1, .cls-2 {
        stroke-miterlimit: 10;
      }

      .cls-1, .cls-2, .cls-3 {
        stroke: #000;
      }

      .cls-1, .cls-3 {
        fill: none;
        stroke-linecap: round;
      }

      .cls-2 {
        stroke-width: .5px;
      }

      .cls-2, .cls-4 {
        fill: #fff;
      }

      .cls-3 {
        stroke-linejoin: round;
      }

      .cls-4, .cls-5 {
        stroke-width: 0px;
      }

      .cls-5 {
        fill: #21b7b3;
      }
    </style>
  </defs>
  <path class="cls-4" d="M7.8,4.7c-.5,0-.9,0-1.3.2-.5-1-1.7-1.3-2.6-.8h0c.5.3.8.8,1,1.4-1.1.6-1.9,1.7-2.2,3h-1.2v2.4h1.5c.8,1.6,2.7,2.6,4.8,2.6s5.3-1.9,5.3-4.3-2.3-4.5-5.3-4.5Z"/>
  <path class="cls-3" d="M7.5,6.1c1,0,1.9.2,2.7.8"/>
  <path class="cls-1" d="M14,8c0,.6-.3,1.1-.9,1.1"/>
  <circle class="cls-3" cx="4.5" cy="8.2" r=".2"/>
  <line class="cls-3" x1="5.7" y1="13.1" x2="5.7" y2="14.5"/>
  <line class="cls-3" x1="9.9" y1="13.2" x2="9.9" y2="14.5"/>
  <path class="cls-2" d="M13.9,4c-.1,0-.2,0-.2-.2-.9-1.9-3.1-2.7-5-1.7h0c-.2,0-.4,0-.5-.2s0-.3.1-.4c2.2-1.1,4.8-.2,5.8,2,.1,0,0,.3-.1.4h-.1Z"/>
  <path class="cls-2" d="M11.9,4.3c-.1,0-.2,0-.3-.2-.1-.3-.3-.5-.6-.7-.5-.2-1-.2-1.5,0-.2,0-.3,0-.4-.2,0-.1.1-.2.3-.3h0c.7-.2,1.3-.2,2,0,.4.2.8.5,1,1,.1.2,0,.3-.2.4,0,0-.2,0-.3,0Z"/>
  <path class="cls-5" d="M3,10.9s8.1,2.3,9.5-3.9c0,0,2.9,5.1-4.4,6.5,0,0-4.4-.2-5.1-2.6Z"/>
  <path class="cls-3" d="M7.8,4.7c-.5,0-.9,0-1.3.2-.5-1-1.7-1.3-2.6-.8h0c.5.3.8.8,1,1.4-1.1.6-1.9,1.7-2.2,3h-1.2v2.4h1.5c.8,1.6,2.7,2.6,4.8,2.6s5.3-1.9,5.3-4.3-2.3-4.5-5.3-4.5Z"/>
</svg>