<?xml version="1.0" encoding="UTF-8"?>
<svg id="e4d1c4cd-de9c-416e-bc86-5fcbe49c521b" xmlns="http://www.w3.org/2000/svg" version="1.1" viewBox="0 0 32 32">
  <defs>
    <style>
      .cls-1 {
        fill: #000;
      }

      .cls-1, .cls-2, .cls-3 {
        stroke-width: 0px;
      }

      .cls-4 {
        stroke: #000;
        stroke-linecap: round;
        stroke-linejoin: round;
      }

      .cls-4, .cls-2 {
        fill: #fff;
      }

      .cls-3 {
        fill: #21b7b3;
      }
    </style>
  </defs>
  <polygon class="cls-2" points="7.4 16.2 2.6 21.2 2.5 29.1 29.6 29.1 29.6 21.3 24.9 16.2 7.4 16.2"/>
  <polyline class="cls-4" points="21.3 21.3 21.3 23.6 10.7 23.6 10.7 21.3"/>
  <polygon class="cls-4" points="29.5 29.5 2.5 29.5 2.5 21.3 10.7 21.3 10.7 23.6 21.3 23.6 21.3 21.3 29.5 21.3 29.5 29.5"/>
  <polyline class="cls-4" points="2.5 21.3 7.2 16.6 10.7 16.6"/>
  <polyline class="cls-4" points="29.5 21.1 24.8 16.6 21.3 16.6"/>
  <path class="cls-3" d="M16,16.2c-.3,0-.5-.1-.7-.3l-4.3-4.2c-.4-.4-.4-1,0-1.4s1-.4,1.4,0l2.5,2.5V4.1c0-.6.5-1,1-1s1,.5,1,1v8.6l2.5-2.5c.4-.4,1-.4,1.4,0s.4,1,0,1.4l-4.3,4.3c0,.2-.2.3-.5.3Z"/>
  <path class="cls-1" d="M16,3.7c.2,0,.4.2.4.4h0v10.1l3.5-3.5c.2-.2.4-.2.6,0s.2.4,0,.6l-4.3,4.3c-.2.2-.4.2-.6,0l-4.3-4.3c-.2-.2-.2-.4,0-.6.2-.2.4-.2.6,0h0l3.5,3.5V4.1c.2-.2.4-.4.6-.4h0M16,2.5c-.9,0-1.6.7-1.6,1.6v7.2l-1.5-1.5c-.6-.6-1.6-.6-2.3,0-.6.6-.6,1.6,0,2.3l4.3,4.3c.6.6,1.6.6,2.3,0h0l4.3-4.3c.6-.6.6-1.6,0-2.3-.6-.6-1.6-.6-2.3,0h0l-1.5,1.5v-7.2c-.1-.8-.8-1.6-1.7-1.6Z"/>
</svg>