<?xml version="1.0" encoding="UTF-8"?>
<svg id="bad024b7-6ae0-4376-965c-5c563711bc34" xmlns="http://www.w3.org/2000/svg" version="1.1" viewBox="0 0 16 16">
  <defs>
    <style>
      .cls-1 {
        fill: #000;
      }

      .cls-1, .cls-2 {
        stroke-width: 0px;
      }

      .cls-2 {
        fill: #21b7b3;
      }
    </style>
  </defs>
  <path class="cls-1" d="M2.4,12c-.2,0-.3-.1-.4-.2-2-3.3-.9-7.6,2.4-9.6,1.6-.9,3.4-1.2,5.2-.8,1.9.5,3.4,1.6,4.3,3.2.1.2.1.5-.2.7-.2,0-.5,0-.7-.2-.8-1.4-2.1-2.3-3.7-2.7-1.4-.4-3,0-4.4.7-2.8,1.7-3.7,5.4-2,8.2,0,.2,0,.5-.2.7-.1,0-.2,0-.3,0Z"/>
  <polygon class="cls-1" points="14.9 1.2 14.1 1 13.3 4.6 9.8 3.6 9.6 4.3 13.9 5.6 14.9 1.2"/>
  <path class="cls-1" d="M3.3,13.2c0,0-.3-.1-.4-.2-.4-.4-.7-.8-1-1.3-.1-.2-.1-.5.2-.7.2-.1.5-.1.7.2.2.4.5.8.8,1.1.2.2.2.5,0,.7,0,.1,0,.2-.3.2Z"/>
  <path class="cls-1" d="M7.6,15.1q0,0,0,0c-.9-.1-1.7-.3-2.5-.6-.3-.1-.4-.4-.2-.7,0-.3.4-.4.7-.2.7.3,1.4.5,2.1.5s.5.3.5.5c-.2.3-.4.5-.6.5Z"/>
  <path class="cls-1" d="M9.9,14.8c-.2,0-.4-.1-.5-.3-.1-.3.1-.5.3-.6.4-.1.9-.3,1.3-.6.2-.1.5-.1.7.2.1.2.1.5-.2.7-.5.3-1,.5-1.5.7q0,0-.1,0Z"/>
  <g>
    <path class="cls-2" d="M5.1,7.8c-.6-1-.4-2.1.3-2.9l.9,1.5,1,.3.3-1-1-1.6c1.4-.2,2.7.6,2.9,1.9.2.8,0,1.6-.6,2.2l2.6,4.5c.2.4.1.8-.3,1s-.8.1-1-.3h0l-2.5-4.5c-1,.2-2.1-.2-2.6-1.1Z"/>
    <path class="cls-1" d="M11,14.3c-.4,0-.9-.2-1.1-.6l-2.5-4.2c-1.1.1-2.2-.5-2.8-1.5h0c-.6-1.1-.5-2.5.4-3.4s.3-.2.4-.2c.2,0,.3,0,.4.2l.8,1.4h.3c0,0,0-.2,0-.2l-.8-1.4c0,0,0-.3,0-.4s.2-.3.3-.3c1.6-.4,3.2.6,3.5,2.2.2.8,0,1.6-.4,2.3l2.5,4.2c.2.3.2.6.1.9-.1.3-.3.6-.6.8-.2.1-.4.2-.6.2ZM7.7,8.4c.2,0,.3.1.4.2l2.6,4.5c.1.1.2.2.3.1.1,0,.1-.1.1-.2v-.2l-2.5-4.4c-.2-.2-.1-.4,0-.6.4-.4.6-1.1.5-1.7-.2-.8-.9-1.4-1.6-1.5l.5.8v.4l-.3,1c0,0,0,.2-.2.3,0,0-.3,0-.4,0l-1-.3c0,0-.2,0-.3-.2l-.4-.8c-.2.5-.2,1.1,0,1.6.4.7,1.3,1.1,2.1.9h0Z"/>
  </g>
</svg>