<?xml version="1.0" encoding="UTF-8"?>
<svg id="b61ecc14-85a3-4101-9b20-a680731282f0" xmlns="http://www.w3.org/2000/svg" version="1.1" viewBox="0 0 24 24">
  <defs>
    <style>
      .cls-1 {
        fill: #000;
        stroke-width: 0px;
      }

      .cls-2 {
        stroke-dasharray: 0 0 3 3;
      }

      .cls-2, .cls-3 {
        fill: none;
        stroke-linecap: round;
      }

      .cls-2, .cls-3, .cls-4 {
        stroke: #000;
        stroke-linejoin: round;
      }

      .cls-4 {
        fill: #21b7b3;
      }
    </style>
  </defs>
  <path class="cls-3" d="M22.7,6.1C19.4.6,12.4-1.1,6.9,2.1,1.5,5.4-.3,12.5,3,17.9h0"/>
  <polygon class="cls-1" points="24.1 2.4 23.3 2.2 22.6 5.8 19 4.8 18.8 5.5 23.1 6.8 24.1 2.4"/>
  <path class="cls-3" d="M3,17.9c.3.4.5.8.9,1.2"/>
  <path class="cls-2" d="M6,21.2c2.9,2.1,6.6,2.8,10,1.8"/>
  <path class="cls-3" d="M17.4,22.6c.5-.2.9-.4,1.3-.7"/>
  <path class="cls-4" d="M7.7,11.2c-.9-1.6-.7-3.7.5-5.1l1.6,2.7,1.7.5.5-1.8-1.5-2.7c2.4-.5,4.7,1,5.2,3.3.3,1.4,0,2.8-1,3.8l4.7,8c.4.6.2,1.5-.5,1.8-.6.4-1.5.2-1.8-.5h0l-4.7-8c-1.8.4-3.7-.4-4.7-2.1Z"/>
</svg>