<?xml version="1.0" encoding="UTF-8"?>
<svg id="be23088c-7e89-494b-b5f5-4a9e53a070d0" xmlns="http://www.w3.org/2000/svg" version="1.1" viewBox="0 0 16 16">
  <defs>
    <style>
      .cls-1 {
        fill: #000;
      }

      .cls-1, .cls-2, .cls-3 {
        stroke-width: 0px;
      }

      .cls-4 {
        fill: none;
        stroke: #000;
        stroke-miterlimit: 10;
      }

      .cls-2 {
        fill: #fff;
      }

      .cls-3 {
        fill: #21b7b3;
      }
    </style>
  </defs>
  <g>
    <path class="cls-2" d="M3.1,14.5c-.3,0-.6-.3-.6-.7V2.2c0-.4.2-.7.6-.7h9.8c.3,0,.6.3.6.7v11.6c0,.4-.2.7-.6.7H3.1Z"/>
    <path class="cls-1" d="M12.9,2h.1v11.6h0q0,.1-.1.1H3.1c0,.3,0,.2,0,.2h0V2.2h0c0-.1,0-.2,0-.2h9.8M12.9,1H3.1c-.7.1-1.2.6-1.1,1.2v11.5c-.1.6.4,1.2,1.1,1.2h9.9c.6-.1,1.1-.6,1.1-1.2V2.2c0-.6-.5-1.1-1.2-1.2h0Z"/>
  </g>
  <path class="cls-3" d="M8.9,9.5c-.7,0-1-.7-1.4-1.1-.2,0-.4,0-.5,0-.7,0-1.3.2-1.9.4v.5c0,.3,0,.7,0,1,.5,1.7,2.2,2.5,3.8,2,1.4-.5,2.3-2.1,1.9-3.7-.5.5-1.2.9-2,1Z"/>
  <path class="cls-1" d="M5.5,2.7h-1.4s0,0,0,0v.9c0,0,0,0,0,0h1.4q0,0,0,0v-.9c0,0,0,0,0,0h0Z"/>
  <line class="cls-4" x1="13.8" y1="4.9" x2="2.8" y2="4.9"/>
  <path class="cls-1" d="M10.1,2.7c-.3,0-.6.3-.6.6s.3.6.6.6.6-.3.6-.6-.3-.6-.6-.6h0Z"/>
  <path class="cls-1" d="M11.8,2.7c-.3,0-.6.3-.6.6s.3.6.6.6.6-.3.6-.6-.3-.6-.6-.6h0Z"/>
  <path class="cls-1" d="M8,7c1.3,0,2.4,1.1,2.4,2.4h0c0,1.3-1.1,2.4-2.4,2.4s-2.4-1.1-2.4-2.4c0-1.3,1.1-2.4,2.4-2.4h0M8,6h0c-1.9,0-3.4,1.5-3.4,3.4s1.5,3.4,3.4,3.4,1.8-.4,2.4-1c.6-.6,1-1.5,1-2.4,0-1.9-1.5-3.4-3.4-3.4h0Z"/>
  <path class="cls-4" d="M5.4,8.7c.5-.2,1.3-.4,1.9-.5.5,0,.8.9,1.4.9.8.1,1.9-1.1,1.9-1.1"/>
</svg>