<?xml version="1.0" encoding="UTF-8"?>
<svg id="a169cb3d-e1b1-4896-9ec1-58816d300f66" xmlns="http://www.w3.org/2000/svg" version="1.1" viewBox="0 0 32 32">
  <defs>
    <style>
      .cls-1, .cls-2 {
        fill: #000;
      }

      .cls-1, .cls-3 {
        stroke-width: 0px;
      }

      .cls-2 {
        stroke-miterlimit: 10;
        stroke-width: .5px;
      }

      .cls-2, .cls-4 {
        stroke: #000;
      }

      .cls-4 {
        fill: #fff;
        stroke-linecap: round;
        stroke-linejoin: round;
      }

      .cls-3 {
        fill: #21b7b3;
      }
    </style>
  </defs>
  <g>
    <circle class="cls-3" cx="16" cy="16" r="14.4"/>
    <path class="cls-1" d="M16,2.3c7.6,0,13.8,6.1,13.8,13.8s-6.2,13.7-13.8,13.7S2.3,23.6,2.3,16,8.4,2.3,16,2.3M16,1C7.8,1,1,7.8,1,16s6.8,15,15,15,15-6.8,15-15S24.3,1,16,1h0Z"/>
  </g>
  <path class="cls-4" d="M8.4,10.4h15.4c1.6,0,3,1.4,3,3v5.4c0,1.6-1.4,3-3,3h-15.4c-1.6,0-3-1.4-3-3v-5.4c0-1.6,1.4-3,3-3Z"/>
  <path class="cls-2" d="M22.6,15.5v.4l-1.8,3.6h-.6l1.8-3.6h-2v-.5h2.6Z"/>
  <path class="cls-2" d="M17.3,15.8c0,1.4-.5,2.1-1.4,2.1s-1.4-.8-1.4-2.1.6-2.1,1.4-2.1c.9.1,1.4.8,1.4,2.1ZM15.1,15.9c0,1,.4,1.6.9,1.6s.9-.6.9-1.6-.3-1.6-.9-1.6c-.6-.2-.9.5-.9,1.6Z"/>
  <path class="cls-2" d="M11.5,15.8c0,1.4-.5,2.1-1.4,2.1s-1.4-.8-1.4-2.1.6-2.1,1.4-2.1c.9.1,1.4.8,1.4,2.1ZM9.3,15.9c0,1,.4,1.6.9,1.6s.9-.6.9-1.6-.2-1.6-.9-1.6c-.6-.2-.9.5-.9,1.6Z"/>
  <path class="cls-2" d="M22.8,11c0,1.4-.5,2.1-1.4,2.1s-1.4-.8-1.4-2.1M20.5,11c0,1,.4,1.6.9,1.6s.9-.6.9-1.6"/>
</svg>