<?xml version="1.0" encoding="UTF-8"?>
<svg id="ed895169-0dc2-417e-b905-dec67d558199" xmlns="http://www.w3.org/2000/svg" version="1.1" viewBox="0 0 32 32">
  <defs>
    <style>
      .cls-1 {
        fill: #000;
      }

      .cls-1, .cls-2, .cls-3 {
        stroke-width: 0px;
      }

      .cls-2 {
        fill: #fff;
      }

      .cls-3 {
        fill: #21b7b3;
      }
    </style>
  </defs>
  <path class="cls-2" d="M6.1,31.3h25.2V6h-12v4.3h.7c1.3,0,2.4.9,2.4,2.3h0c0,1.5-.8,2.5-2,2.5h-1.1v4.4h-4.5v-1.2c0-1.2-1.1-2-2.1-2h-.1c-1.1,0-2.1.8-2.1,2h0v1.2h-4.4v11.8Z"/>
  <path class="cls-1" d="M31.5,5.3h-12.2c-.4,0-.7.3-.7.5h0v4.5c0,.3.3.5.5.5h.9c.9,0,1.7.7,1.7,1.6h0c0,.9-.4,1.9-1.3,1.9h-1.2c-.3,0-.5.3-.5.5v3.9h-3.2v-.5c0-1.5-1.3-2.7-2.8-2.7h-.1c-1.5,0-2.8,1.1-2.8,2.7h0v.5h-3.8c-.3,0-.5.3-.5.5v12.1c0,.3.3.5.9.5h25.5c.1,0,.1-.1.1-.5V6c0-.3-.3-.7-.5-.7ZM19.9,15.5h.5c1.5-.1,2.7-1.5,2.5-2.9h0c0-1.6-1.2-2.8-2.8-2.8h-.3v-3.3h11.1v12.3h-3.5c-.3,0-.5.3-.5.5v1.2c0,.9-.8,1.3-1.7,1.3s-1.7-.3-1.7-1.3v-1.2c0-.3-.3-.5-.5-.5h-3.1v-3.3ZM6.5,19.9h3.7c.3,0,.5-.3.5-.5v-1.2c0-.8.7-1.6,1.5-1.6h.1c.9,0,1.7.7,1.7,1.6h0v1.2c0,.3.3.5.5.5h4v2.4h-.8c-1.3,0-2.4,1.1-2.4,2.4v.3c-.1,1.6.9,2.9,2.5,3.1h.7v2.8H6.5v-11ZM30.8,30.9h-11.1v-3.5c0-.3-.3-.5-.5-.5h-1.2c-.9,0-1.3-.9-1.3-1.9s.4-1.6,1.3-1.6h1.3c.3,0,.5-.3.5-.5v-2.9h2.3v.5c0,1.3,1.2,2.4,2.5,2.4h.3c1.3.1,2.7-.8,2.8-2.1v-.8h3.1v10.9h0Z"/>
  <path class="cls-1" d="M8.5,12v.5c0,.3.3.5.5.5h3.5c.3,0,.5-.3.5-.5v-2.8h.5c1.6,0,2.4-1.3,2.4-2.9s-.7-2.8-2.3-2.8h-.4V.5c0-.3-.3-.5-.5-.5H.5c-.2,0-.5.3-.5.5v12c0,.3.3.5.5.5h4c.3,0,.5-.3.5-.5v-.5c0-.9.8-1.7,1.7-1.7s1.8.8,1.8,1.7Z"/>
  <path class="cls-3" d="M4,12H1.1V1.1h10.9v3.5c0,.3.3.5.5.5h1.2c.9,0,1.2.7,1.2,1.6s-.3,1.7-1.3,1.7h-1.1c-.3,0-.5.3-.5.5v2.8h-2.4c0-1.6-1.2-2.8-2.8-2.8-1.6.2-2.8,1.5-2.8,3.1Z"/>
</svg>