<?xml version="1.0" encoding="UTF-8"?>
<svg id="a9b4a464-f6e8-4e51-83a1-58c8998e24d9" xmlns="http://www.w3.org/2000/svg" version="1.1" viewBox="0 0 32 32">
  <defs>
    <style>
      .cls-1 {
        fill: #000;
      }

      .cls-1, .cls-2, .cls-3 {
        stroke-width: 0px;
      }

      .cls-2 {
        fill: #fff;
      }

      .cls-3 {
        fill: #21b7b3;
      }
    </style>
  </defs>
  <path class="cls-1" d="M8.4,21h-2.4c-.3,0-.5-.2-.5-.5s.3-.5.5-.5h2.4c.3,0,.5.2.5.5s-.2.5-.5.5Z"/>
  <path class="cls-1" d="M3.7,21h-1.2c-.3,0-.5-.2-.5-.5s.2-.5.5-.5h1.2c.3,0,.5.2.5.5s-.2.5-.5.5Z"/>
  <path class="cls-1" d="M6,18h-1.1c-.3,0-.5-.2-.5-.5s.2-.5.5-.5h1.1c.3,0,.5.2.5.5s-.2.5-.5.5Z"/>
  <path class="cls-1" d="M3.7,18h-1.2c-.3,0-.5-.2-.5-.5s.2-.5.5-.5h1.2c.3,0,.5.2.5.5s-.2.5-.5.5Z"/>
  <path class="cls-1" d="M9.6,15h-3.6c-.3,0-.5-.2-.5-.5s.3-.5.5-.5h3.5c.3,0,.5.2.5.5s-.1.5-.4.5Z"/>
  <path class="cls-1" d="M3.7,15h-1.2c-.3,0-.5-.2-.5-.5s.2-.5.5-.5h1.2c.3,0,.5.2.5.5s-.2.5-.5.5Z"/>
  <g>
    <polygon class="cls-3" points="9.5 18.4 20.1 25.3 29.5 11 22.7 6.5 16.5 7.8 9.5 18.4"/>
    <path class="cls-1" d="M20.1,25.8c-.1,0-.2,0-.3-.1l-10.6-7c-.2-.2-.3-.5-.1-.7l7-10.6c.1,0,.2-.2.3-.2l6.1-1.2c.1,0,.3,0,.4,0l6.8,4.5c.1.1.2.2.2.3s0,.3-.1.4l-9.4,14.3c-.1.1-.2.2-.3.2,0,0,0,0,0,0ZM10.2,18.2l9.7,6.4,8.9-13.5-6.3-4.1-5.8,1.2-6.5,10Z"/>
  </g>
  <g>
    <polyline class="cls-2" points="22.8 6.9 20.3 10.6 16.6 8.2"/>
    <path class="cls-1" d="M20.3,11.1c-.1,0-.2,0-.3-.1l-3.7-2.5c-.2-.2-.3-.5-.1-.7.2-.2.5-.3.7,0l3.3,2.2,2.2-3.3c.2-.2.5-.3.7,0s.3.5.1.7l-2.5,3.7c-.1.1-.2.2-.3.2h-.1Z"/>
  </g>
  <path class="cls-1" d="M23.7,15.1c-.1,0-.2,0-.3-.1l-2.8-1.8c-.2-.2-.3-.5-.1-.7.2-.2.5-.3.7-.1l2.8,1.8c.2.2.3.5.1.7-.1.1-.2.2-.4.2Z"/>
  <path class="cls-1" d="M22.5,16.9c-.1,0-.2,0-.3-.1l-5.6-3.7c-.2-.2-.3-.5-.1-.7.2-.2.5-.3.7-.1l5.6,3.7c.2.2.3.5.1.7-.1.2-.2.2-.4.2Z"/>
  <path class="cls-1" d="M21.3,18.8c-.1,0-.2,0-.3-.1l-5.6-3.7c-.2-.2-.3-.5-.1-.7s.5-.3.7-.1l5.6,3.7c.2.2.3.5.1.7,0,.1-.3.2-.4.2Z"/>
  <path class="cls-1" d="M20,20.7c-.1,0-.2,0-.3-.1l-5.6-3.7c-.2-.2-.3-.5-.1-.7.2-.2.5-.3.7-.1l5.6,3.7c.2.2.3.5.1.7,0,.1-.2.2-.4.2Z"/>
</svg>