<?xml version="1.0" encoding="UTF-8"?>
<svg id="b8b38279-271f-469d-85e0-ba3e366abc6e" xmlns="http://www.w3.org/2000/svg" version="1.1" viewBox="0 0 32 32">
  <defs>
    <style>
      .cls-1 {
        fill: none;
      }

      .cls-1, .cls-2 {
        stroke: #000;
        stroke-linecap: round;
        stroke-linejoin: round;
      }

      .cls-2 {
        fill: #fff;
      }

      .cls-3 {
        fill: #21b7b3;
        stroke-width: 0px;
      }
    </style>
  </defs>
  <polyline class="cls-2" points="7.2 4.5 2.5 4.5 2.5 29.5 28.5 29.5 28.5 4.5 23.6 4.5"/>
  <rect class="cls-2" x="7.2" y="2.5" width="3.5" height="4.7"/>
  <rect class="cls-2" x="20.1" y="2.5" width="3.5" height="4.7"/>
  <rect class="cls-3" x="4.5" y="15.3" width="16.4" height="4.7"/>
  <rect class="cls-3" x="9.8" y="20.1" width="16.4" height="4.7"/>
  <line class="cls-1" x1="10.7" y1="4.5" x2="20.1" y2="4.5"/>
  <line class="cls-1" x1="2.5" y1="10.4" x2="28.3" y2="10.4"/>
  <line class="cls-1" x1="4.8" y1="24.8" x2="26" y2="24.8"/>
  <line class="cls-1" x1="9.5" y1="13.1" x2="9.5" y2="27.2"/>
  <line class="cls-1" x1="15.4" y1="13.1" x2="15.4" y2="27.2"/>
  <line class="cls-1" x1="4.8" y1="15.4" x2="26" y2="15.4"/>
  <line class="cls-1" x1="21.3" y1="13.1" x2="21.3" y2="27.2"/>
  <line class="cls-1" x1="4.8" y1="20.1" x2="26" y2="20.1"/>
</svg>