<?xml version="1.0" encoding="UTF-8"?>
<svg id="b8b38279-271f-469d-85e0-ba3e366abc6e" xmlns="http://www.w3.org/2000/svg" version="1.1" viewBox="0 0 16 16">
  <defs>
    <style>
      .cls-1 {
        fill: none;
      }

      .cls-1, .cls-2 {
        stroke: #000;
        stroke-linecap: round;
        stroke-linejoin: round;
      }

      .cls-2 {
        fill: #fff;
      }

      .cls-3 {
        fill: #21b7b3;
        stroke-width: 0px;
      }
    </style>
  </defs>
  <polyline class="cls-2" points="3.9 1.5 1.5 1.5 1.5 14.5 14.5 14.5 14.5 1.5 12.1 1.5"/>
  <rect class="cls-2" x="3.9" y=".5" width="1.8" height="2.4"/>
  <rect class="cls-2" x="10.4" y=".5" width="1.8" height="2.4"/>
  <rect class="cls-3" x="2.4" y="6.9" width="8.3" height="2.4"/>
  <rect class="cls-3" x="5.3" y="9.4" width="8.3" height="2.4"/>
  <line class="cls-1" x1="5.6" y1="1.5" x2="10.4" y2="1.5"/>
  <line class="cls-1" x1="1.5" y1="4.6" x2="14.5" y2="4.6"/>
  <line class="cls-1" x1="2.7" y1="11.7" x2="13.3" y2="11.7"/>
  <line class="cls-1" x1="5" y1="5.8" x2="5" y2="12.9"/>
  <line class="cls-1" x1="8" y1="5.8" x2="8" y2="12.9"/>
  <line class="cls-1" x1="2.7" y1="7" x2="13.3" y2="7"/>
  <line class="cls-1" x1="11" y1="5.8" x2="11" y2="12.9"/>
  <line class="cls-1" x1="2.7" y1="9.4" x2="13.3" y2="9.4"/>
</svg>