<?xml version="1.0" encoding="UTF-8"?>
<svg id="b9e5e45f-32fb-48a9-8158-3add9c642e6a" xmlns="http://www.w3.org/2000/svg" version="1.1" viewBox="0 0 16 16">
  <defs>
    <style>
      .cls-1 {
        fill: #000;
      }

      .cls-1, .cls-2, .cls-3, .cls-4 {
        stroke-width: 0px;
      }

      .cls-2 {
        fill: #377ab5;
      }

      .cls-3 {
        fill: #fff;
      }

      .cls-4 {
        fill: #21b7b3;
      }
    </style>
  </defs>
  <polyline class="cls-3" points="4.2 14.9 3.9 15.3 15.6 15.3 15.6 11 13 8.2 5 8.2 5 14"/>
  <polyline class="cls-3" points="4.2 14.9 3.7 15.5 15.5 15.5 15.5 11 10.9 11 10.9 12.3 5.1 12.3 5.1 11 5 11 5 14"/>
  <path class="cls-4" d="M8.3,8.4c-.2,0-.4-.2-.5-.4,0,0,0,0,0-.2V3.1l-1.3,1.3c-.2.2-.6.2-.8,0-.2-.2-.2-.6,0-.8h0l2.4-2.3c0-.1.1-.1.1-.1.2-.1.4,0,.6.1l2.4,2.4c.2.2.2.6,0,.8s-.6.2-.8,0h0l-1.3-1.4v4.8h-.1c0,.3-.3.5-.6.5Z"/>
  <path class="cls-1" d="M8.3,1.5q.1,0,.2.1l2.4,2.4c.1,0,.1,0,0,.2s-.2,0-.3,0h0l-1.9-2v5.6c0,.2-.2.2-.4.3-.1,0-.2-.1-.3-.3V2.3l-1.9,2c0,0-.2,0-.3,0-.1-.2-.1-.3,0-.4l2.5-2.4c-.1,0,0,0,0,0M8.3.8c-.2,0-.5.1-.6.3l-2.3,2.3c-.4.4-.4.9,0,1.3s.9.3,1.3,0h0l.7-.8v3.9c0,0,0,.3,0,.4.2.3.5.5.8.5s.7-.2.9-.5c.1,0,.1-.2.1-.3V3.9l.8.8c.3.3.9.3,1.2,0,.4-.3.4-.9,0-1.3h0l-2.3-2.3c-.2-.2-.4-.3-.7-.3Z"/>
  <g>
    <polyline class="cls-3" points="15.5 11 12.9 8.4 10.9 8.4"/>
    <path class="cls-1" d="M15.5,11.5c-.1,0-.3,0-.4-.1l-2.5-2.5h-1.8c-.3,0-.5-.2-.5-.5s.2-.5.5-.5h2c.2,0,.4.1.5.1l2.6,2.6c.2.2.2.5,0,.7,0,.2-.3.2-.4.2Z"/>
  </g>
  <path class="cls-1" d="M15.5,10.5h-4.6c-.3,0-.5.2-.5.5v.8h-4.8v-.8c0-.3-.2-.5-.5-.5h0v2.3h5.9c.3,0,.5-.2.5-.5v-.8h3.6v3.5H4.1l-.6.8-.2.2h12.2c.3,0,.5-.2.5-.5v-4.5c0-.3-.2-.5-.5-.5Z"/>
  <path class="cls-2" d="M0,10h2.1c-.7.4-1.9,1.4-1.9,3.2,0,1.8,1.8,2.8,1.8,2.8l.7-.8s-1.4-.8-1.5-2c-.1-1.3,1.2-2,1.8-2.4v2.2h1v-4H0v1Z"/>
</svg>