<?xml version="1.0" encoding="UTF-8"?>
<svg id="b1656e98-94f3-4ebc-b753-8d40cc5d964a" xmlns="http://www.w3.org/2000/svg" version="1.1" viewBox="0 0 32 32">
  <defs>
    <style>
      .cls-1 {
        fill: #000;
      }

      .cls-1, .cls-2, .cls-3 {
        stroke-width: 0px;
      }

      .cls-2 {
        fill: #fff;
      }

      .cls-3 {
        fill: #21b7b3;
      }
    </style>
  </defs>
  <g>
    <circle class="cls-2" cx="16" cy="10" r="9.5"/>
    <path class="cls-1" d="M16,1c5,0,9,4,9,9s-4,9-9,9S7,15,7,10,11,1,16,1M16,0C10.5,0,6,4.5,6,10s4.5,10,10,10,10-4.5,10-10S21.5,0,16,0h0Z"/>
  </g>
  <g>
    <path class="cls-2" d="M1.7,31.5c1.2-6.9,7.2-12,14.3-12s13.1,5.1,14.3,12H1.7Z"/>
    <path class="cls-1" d="M16,20c6.6,0,12.3,4.7,13.7,11H2.3c1.4-6.3,7.1-11,13.7-11M16,19c-7.6,0-13.9,5.7-14.9,13h29.7c-.9-7.3-7.2-13-14.8-13h0Z"/>
  </g>
  <g>
    <circle class="cls-3" cx="9" cy="27" r="2.5"/>
    <path class="cls-1" d="M9,25c1.1,0,2,.9,2,2s-.9,2-2,2-2-.9-2-2,.9-2,2-2M9,24c-1.7,0-3,1.3-3,3s1.3,3,3,3,3-1.3,3-3-1.3-3-3-3h0Z"/>
  </g>
  <g>
    <circle class="cls-3" cx="16" cy="27" r="2.5"/>
    <path class="cls-1" d="M16,25c1.1,0,2,.9,2,2s-.9,2-2,2-2-.9-2-2,.9-2,2-2M16,24c-1.7,0-3,1.3-3,3s1.3,3,3,3,3-1.3,3-3-1.3-3-3-3h0Z"/>
  </g>
  <g>
    <circle class="cls-3" cx="23" cy="27" r="2.5"/>
    <path class="cls-1" d="M23,25c1.1,0,2,.9,2,2s-.9,2-2,2-2-.9-2-2,.9-2,2-2M23,24c-1.7,0-3,1.3-3,3s1.3,3,3,3,3-1.3,3-3-1.3-3-3-3h0Z"/>
  </g>
</svg>