<?xml version="1.0" encoding="UTF-8"?>
<svg id="ed895169-0dc2-417e-b905-dec67d558199" xmlns="http://www.w3.org/2000/svg" version="1.1" viewBox="0 0 16 16">
  <defs>
    <style>
      .cls-1 {
        fill: #000;
      }

      .cls-1, .cls-2, .cls-3 {
        stroke-width: 0px;
      }

      .cls-2 {
        fill: #fff;
      }

      .cls-3 {
        fill: #21b7b3;
      }
    </style>
  </defs>
  <path class="cls-2" d="M3.1,15.7h12.6V3h-6v2.1h.3c.7,0,1.2.5,1.2,1.1h0c0,.7-.4,1.3-1,1.3h-.5v2.2h-2.3v-.6c0-.6-.5-1-1.1-1h0c-.5,0-1.1.4-1.1,1h0v.6h-2.1v6Z"/>
  <path class="cls-1" d="M15.7,2.7h-6c-.2,0-.3,0-.3.3h0v2.3c0,0,.1.3.3.3h.3c.5,0,.9.3.9.8h0c0,.5-.2.9-.7.9h-.6c-.1,0-.3,0-.3.3v1.9h-1.6v-.4c0-.7-.7-1.3-1.4-1.3h0c-.7,0-1.4.5-1.4,1.3h0v.3h-1.9c0,0-.3.1-.3.3v6.1c0,.1,0,.3.5.3h12.7c.1,0,.1-.1.1-.3V3c0,0-.1-.3-.3-.3ZM9.9,7.7h.3c.7,0,1.3-.7,1.3-1.5h0c0-.7-.6-1.3-1.4-1.3h-.2v-1.6h5.5v6.1h-1.7c-.1,0-.3.1-.3.3v.6c0,.5-.4.7-.9.7s-.9-.1-.9-.7v-.6c0-.1-.1-.3-.3-.3h-1.4v-1.7ZM3.3,9.9h1.9c0,0,.3-.1.3-.3v-.5c0-.4.3-.8.7-.8h0c.5,0,.9.3.9.8h0v.6c0,.1,0,.3.3.3h2v1.2h-.6c-.7,0-1.2.5-1.2,1.2h0c0,.9.5,1.5,1.3,1.6h.3v1.4H3.3v-5.5ZM15.4,15.5h-5.5v-1.7c0-.1-.1-.3-.3-.3h-.6c-.5,0-.7-.5-.7-.9s.2-.8.7-.8h.7c.1,0,.3-.1.3-.3v-1.5h1.1v.3c0,.7.6,1.2,1.3,1.2h.1c.7.1,1.3-.4,1.4-1.1h0v-.4h1.5v5.5h0Z"/>
  <path class="cls-1" d="M4.3,6v.3c0,0,0,.3.3.3h1.7c0,0,.3,0,.3-.3v-1.4h.3c.7,0,1.1-.7,1.1-1.5s-.4-1.4-1.2-1.4h-.2V.3c0-.2,0-.3-.3-.3H.3c-.2,0-.3.1-.3.3v6c0,0,.1.3.3.3h2c0,0,.3,0,.3-.3v-.3c0-.5.4-.9.9-.9s.8.4.8.9Z"/>
  <path class="cls-3" d="M2,6H.5V.5h5.5v1.7c0,0,0,.3.3.3h.6c.5,0,.6.3.6.8s-.2.9-.7.9h-.5c-.2,0-.3.1-.3.3v1.4h-1.2c0-.8-.6-1.4-1.4-1.4s-1.4.7-1.4,1.5Z"/>
</svg>