<?xml version="1.0" encoding="UTF-8"?>
<svg id="a8387ace-0f4a-473d-be85-293fe22393ce" xmlns="http://www.w3.org/2000/svg" version="1.1" viewBox="0 0 16 16">
  <defs>
    <style>
      .cls-1 {
        fill: #000;
      }

      .cls-1, .cls-2, .cls-3 {
        stroke-width: 0px;
      }

      .cls-4 {
        fill: none;
        stroke: #000;
        stroke-linecap: round;
        stroke-linejoin: round;
      }

      .cls-2 {
        fill: #fff;
      }

      .cls-3 {
        fill: #21b7b3;
      }
    </style>
  </defs>
  <path class="cls-1" d="M10.6,14.2h-5.2c-.2,0-.3-.1-.3-.3s0-.3.3-.3h5.2c.2,0,.3.1.3.3s-.1.3-.3.3Z"/>
  <path class="cls-2" d="M14.7,11.9c0,.5-.3.9-.9.9H2.2c-.5,0-.9-.4-.9-.9V3.2c0-.5.3-.9.9-.9h11.7c.5,0,.9.4.9.9v8.7h0Z"/>
  <line class="cls-4" x1="12.3" y1="5.6" x2="8.3" y2="5.6"/>
  <polyline class="cls-4" points="10.9 6.8 12.3 5.6 10.9 4.2"/>
  <line class="cls-4" x1="8.9" y1="7.2" x2="4.7" y2="7.2"/>
  <polyline class="cls-4" points="6.1 8.6 4.7 7.2 6.1 5.9"/>
  <rect class="cls-3" x="1.5" y="10.6" width="13.1" height="2"/>
  <rect class="cls-1" x="1" y="10.2" width="14" height=".6"/>
  <path class="cls-1" d="M13.6,2.6c.5,0,.8.4.8.9v8.2c0,.5-.3.9-.8.9H2.4c-.5,0-.8-.4-.8-.9V3.5c0-.5.3-.9.8-.9h11.2M13.6,2H2.4c-.8,0-1.4.7-1.4,1.5v8.2c0,.8.6,1.5,1.4,1.5h11.2c.8,0,1.5-.7,1.4-1.5V3.5c0-.8-.6-1.5-1.4-1.5h0Z"/>
  <rect class="cls-1" x="7.4" y="13" width="1.2" height="1"/>
</svg>