<?xml version="1.0" encoding="UTF-8"?>
<svg id="b9e5e45f-32fb-48a9-8158-3add9c642e6a" xmlns="http://www.w3.org/2000/svg" version="1.1" viewBox="0 0 24 24">
  <defs>
    <style>
      .cls-1 {
        fill: #000;
      }

      .cls-1, .cls-2, .cls-3 {
        stroke-width: 0px;
      }

      .cls-4 {
        stroke: #000;
        stroke-linecap: round;
        stroke-linejoin: round;
      }

      .cls-4, .cls-2 {
        fill: #fff;
      }

      .cls-3 {
        fill: #21b7b3;
      }
    </style>
  </defs>
  <polygon class="cls-2" points="4.7 12.2 .6 16.4 .5 23.2 23.6 23.2 23.6 16.5 19.6 12.2 4.7 12.2"/>
  <path class="cls-3" d="M12.5,12.5c-.4,0-.7-.2-.9-.6-.1-.1-.1-.2-.1-.3v-7.3l-2,2.1c-.3.3-.9.4-1.2,0s-.4-.9,0-1.2h0l3.6-3.6c.1-.1.2-.1.3-.2.3-.1.7-.1.9.2l3.6,3.6c.3.3.3.9,0,1.2-.3.3-.9.3-1.2,0h0l-2-2.1v7.3c0,.1,0,.2-.1.3-.2.4-.5.6-.9.6Z"/>
  <path class="cls-1" d="M12.5,1.8c.1,0,.2,0,.3.1l3.6,3.6c.1,0,.1.4,0,.5s-.4,0-.5,0h0l-2.9-3v8.6c-.1.2-.3.3-.5.4-.2,0-.4-.2-.5-.4V3.1l-2.9,3c-.1,0-.3,0-.5,0-.1,0-.1-.4,0-.5l3.6-3.6c0-.1.2-.2.3-.2M12.5.8c-.4,0-.7.1-1,.4l-3.6,3.7c-.5.5-.5,1.4,0,1.9.5.5,1.4.5,1.9,0h0l1.2-1.2v6.1c0,.2.1.4.2.6.3.5.8.7,1.3.8.6,0,1.1-.3,1.3-.8.1-.2.2-.3.2-.5v-6.2l1.2,1.2c.5.5,1.4.6,1.9,0s.6-1.4,0-1.9h0l-3.6-3.6c-.3-.3-.6-.5-1-.5Z"/>
  <polygon class="cls-4" points="23.5 23.5 .5 23.5 .5 16.5 7.5 16.5 7.5 18.5 16.5 18.5 16.5 16.5 23.5 16.5 23.5 23.5"/>
  <polyline class="cls-4" points=".5 16.5 4.5 12.5 7.5 12.5"/>
  <polyline class="cls-4" points="23.5 16.5 19.5 12.5 16.5 12.5"/>
</svg>