<?xml version="1.0" encoding="UTF-8"?>
<svg id="a711ffa3-4801-44e9-96f0-e2618a368f24" xmlns="http://www.w3.org/2000/svg" version="1.1" viewBox="0 0 32 32">
  <defs>
    <style>
      .cls-1 {
        fill: #21b7b3;
      }

      .cls-1, .cls-2, .cls-3, .cls-4 {
        stroke: #000;
        stroke-linejoin: round;
      }

      .cls-1, .cls-2, .cls-4 {
        stroke-linecap: round;
      }

      .cls-2 {
        fill: none;
      }

      .cls-3 {
        stroke-linecap: square;
      }

      .cls-3, .cls-4 {
        fill: #fff;
      }
    </style>
  </defs>
  <polyline class="cls-4" points="22.1 4.5 27.5 4.5 27.5 31.5 4.5 31.5 4.5 4.5 9.9 4.5"/>
  <polyline class="cls-3" points="9.9 7.5 7.5 7.5 7.5 28.5 24.5 28.5 24.5 7.5 22.1 7.5"/>
  <line class="cls-2" x1="11.5" y1="12.5" x2="20.9" y2="12.5"/>
  <line class="cls-2" x1="11.5" y1="15.5" x2="20.9" y2="15.5"/>
  <line class="cls-2" x1="11.5" y1="18.5" x2="20.9" y2="18.5"/>
  <line class="cls-2" x1="11.5" y1="21.5" x2="20.9" y2="21.5"/>
  <line class="cls-2" x1="11.5" y1="24.5" x2="20.9" y2="24.5"/>
  <path class="cls-1" d="M19.3,3.5c-.1-1.7-1.6-3.1-3.3-3-1.7,0-3.1,1.3-3.3,3h-3.2v6h13V3.5h-3.2Z"/>
</svg>