<?xml version="1.0" encoding="UTF-8"?>
<svg id="e9e15487-f55c-45a9-ae0b-8aeea6cf568a" xmlns="http://www.w3.org/2000/svg" version="1.1" viewBox="0 0 32 32">
  <defs>
    <style>
      .cls-1 {
        fill: #21b7b3;
      }

      .cls-1, .cls-2, .cls-3 {
        stroke: #000;
        stroke-linecap: round;
        stroke-linejoin: round;
      }

      .cls-2 {
        fill: none;
      }

      .cls-3, .cls-4 {
        fill: #fff;
      }

      .cls-4 {
        stroke-width: 0px;
      }
    </style>
  </defs>
  <path class="cls-4" d="M11.2,21.4s-1.1-3.8,9.1-3.5v-2.8l-18.5,1.4v3.4c.1,0,3.6,3.3,9.4,1.5Z"/>
  <path class="cls-3" d="M1.5,15.4v3.8c0,1.4,4.3,2.5,9.5,2.5h.6"/>
  <path class="cls-3" d="M20.4,11.6v3.8c0,1.4-4.3,2.5-9.5,2.5s-9.5-1.1-9.5-2.5v-3.8"/>
  <path class="cls-3" d="M20.4,7.8v3.8c0,1.4-4.3,2.5-9.5,2.5S1.5,13,1.5,11.6v-3.8"/>
  <path class="cls-3" d="M20.4,4v3.8c0,1.4-4.3,2.5-9.5,2.5S1.5,9.2,1.5,7.8v-3.8"/>
  <ellipse class="cls-3" cx="10.8" cy="4" rx="9.5" ry="2.5"/>
  <path class="cls-1" d="M30.5,24.2v3.8c0,1.4-4.3,2.5-9.5,2.5s-9.5-1.1-9.5-2.5v-3.8"/>
  <line class="cls-2" x1="20.4" y1="15.4" x2="20.4" y2="17.9"/>
  <path class="cls-1" d="M30.5,20.4v3.8c0,1.4-4.3,2.5-9.5,2.5s-9.5-1.1-9.5-2.5v-3.8"/>
  <ellipse class="cls-1" cx="20.9" cy="20.4" rx="9.5" ry="2.5"/>
  <path class="cls-3" d="M1.5,19.3c-.1,1.4,4,2.5,9.3,2.4h.8v3.8h-.8c-5.2.5-9.5-.6-9.3-2v-4.2h0Z"/>
</svg>