<?xml version="1.0" encoding="UTF-8"?>
<svg id="ed895169-0dc2-417e-b905-dec67d558199" xmlns="http://www.w3.org/2000/svg" version="1.1" viewBox="0 0 24 24">
  <defs>
    <style>
      .cls-1 {
        fill: #000;
      }

      .cls-1, .cls-2, .cls-3 {
        stroke-width: 0px;
      }

      .cls-2 {
        fill: #fff;
      }

      .cls-3 {
        fill: #21b7b3;
      }
    </style>
  </defs>
  <path class="cls-2" d="M4.6,23.5h18.9V4.5h-9v3.2h.5c1,0,1.8.7,1.8,1.7h0c0,1.1-.6,1.9-1.5,1.9h-.8v3.3h-3.4v-.9c0-.9-.8-1.5-1.6-1.5h-.1c-.8,0-1.6.6-1.6,1.5h0v.9h-3.2v8.9Z"/>
  <path class="cls-1" d="M23.6,4h-9.1c-.3,0-.5.2-.5.4h0v3.4c0,.2.2.4.4.4h.6c.7,0,1.3.5,1.3,1.2h0c0,.7-.3,1.4-1,1.4h-.9c-.2,0-.4.2-.4.4v2.9h-2.4v-.4c0-1.1-1-2-2.1-2h-.1c-1.1,0-2.1.8-2.1,2h0v.4h-2.8c-.2,0-.4.2-.4.4v9.1c0,.2.2.4.7.4h19.1c.1,0,.1-.1.1-.4V4.5c0-.2-.2-.5-.4-.5ZM14.9,11.6h.4c1.1-.1,2-1.1,1.9-2.2h0c0-1.2-.9-2.1-2.1-2.1h-.2v-2.4h8.3v9.2h-2.6c-.2,0-.4.2-.4.4v.9c0,.7-.6,1-1.3,1s-1.3-.2-1.3-1v-.9c0-.2-.2-.4-.4-.4h-2.3v-2.5ZM4.9,14.9h2.8c.2,0,.4-.2.4-.4v-.9c0-.6.5-1.2,1.1-1.2h.1c.7,0,1.3.5,1.3,1.2h0v.9c0,.2.2.4.4.4h3v1.8h-.6c-1,0-1.8.8-1.8,1.8v.2c-.1,1.2.7,2.2,1.9,2.3h.5v2.1H4.9v-8.2ZM23.1,23.2h-8.3v-2.6c0-.2-.2-.4-.4-.4h-.9c-.7,0-1-.7-1-1.4s.3-1.2,1-1.2h1c.2,0,.4-.2.4-.4v-2.2h1.7v.4c0,1,.9,1.8,1.9,1.8h.2c1,.1,2-.6,2.1-1.6v-.6h2.3v8.2h0Z"/>
  <path class="cls-1" d="M6.4,9v.4c0,.2.2.4.4.4h2.6c.2,0,.4-.2.4-.4v-2.1h.4c1.2,0,1.8-1,1.8-2.2s-.6-2.1-1.8-2.1h-.3V.4c0-.2-.2-.4-.4-.4H.4c-.2,0-.4.2-.4.4v9c0,.2.2.4.4.4h3c.2,0,.4-.2.4-.4v-.4c0-.7.6-1.3,1.3-1.3s1.3.6,1.3,1.3Z"/>
  <path class="cls-3" d="M3,9H.8V.8h8.2v2.6c0,.2.2.4.4.4h.9c.7,0,.9.5.9,1.2s-.2,1.3-1,1.3h-.8c-.2,0-.4.2-.4.4v2.1h-1.8c0-1.2-.9-2.1-2.1-2.1-1.2.1-2.1,1.1-2.1,2.3Z"/>
</svg>