<?xml version="1.0" encoding="UTF-8"?>
<svg id="e5c69d69-244a-492a-88b0-975c597be333" xmlns="http://www.w3.org/2000/svg" version="1.1" viewBox="0 0 16 16">
  <defs>
    <style>
      .cls-1 {
        fill: none;
        stroke: #000;
        stroke-linecap: round;
        stroke-linejoin: round;
      }

      .cls-2 {
        fill: #21b7b3;
        stroke-width: 0px;
      }
    </style>
  </defs>
  <path class="cls-2" d="M9.6,9.8c.4-.3.7-.8.6-1.3,0-.7-.4-1.2-1.6-1.6-.7-.3-1.4-.6-2.1-1l-.7-.4c-.4-.4-.7-1-.7-1.5,0-1.5,1.4-2.5,3.2-2.5s1.7.2,2.4.6l-.4,1c-.5-.4-1.3-.6-2-.6-1,0-1.8.5-1.8,1.3s.9,1.2,2.2,1.7c1.6.5,2.8,1.2,2.8,2.8s-.4,1.6-1.1,2.1l-.8-.6Z"/>
  <path class="cls-1" d="M10.4,3.1c-.6-.4-1.4-.6-2.1-.6-1,0-1.8.5-1.8,1.3s.9,1.2,2.2,1.7c1.6.5,2.8,1.2,2.8,2.8s-.4,1.6-1.1,2.1c.4.4.7,1,.7,1.5,0,1.8-1.7,2.6-3.3,2.6s-1.9-.2-2.7-.7l.4-1c.7.5,1.5.7,2.3.7s2-.5,2-1.4-.5-1.3-2.1-1.8c-1.8-.6-3-1.3-3-2.8s.5-1.6,1.3-2c-.6-.4-.9-1-.9-1.5,0-1.5,1.4-2.5,3.2-2.5s1.7.2,2.4.6l-.3,1ZM7.6,8.9c.7.2,1.4.5,2,.8.4-.2.7-.7.6-1.3,0-.7-.4-1.2-1.6-1.6-.7-.2-1.4-.5-2.1-.9-.4.3-.7.8-.8,1.4,0,.6.5,1.1,1.9,1.6Z"/>
</svg>