<?xml version="1.0" encoding="UTF-8"?>
<svg id="eb3bd8c6-fec9-4643-8863-2360b184f3df" xmlns="http://www.w3.org/2000/svg" version="1.1" viewBox="0 0 32 32">
  <defs>
    <style>
      .cls-1 {
        fill: #000;
      }

      .cls-1, .cls-2, .cls-3 {
        stroke-width: 0px;
      }

      .cls-4 {
        stroke-linecap: round;
        stroke-miterlimit: 10;
      }

      .cls-4, .cls-5 {
        fill: none;
        stroke: #000;
      }

      .cls-5 {
        stroke-linejoin: round;
      }

      .cls-2 {
        fill: #fff;
      }

      .cls-3 {
        fill: #21b7b3;
      }
    </style>
  </defs>
  <polygon class="cls-3" points="16.2 25.7 20.9 30.3 30 21.6 25 16.7 16.2 25.7"/>
  <path class="cls-1" d="M21,31c-.2,0-.3-.1-.4-.2L4.8,15.8c0-.1-.2-.3-.2-.5V6.5c0-.3.3-.6.6-.6h9.1c.3,0,.5,0,.7.3l15.3,14.6c.4.4.4,1,0,1.5h0l-8.9,8.5c-.1.1-.2.2-.4.2ZM5.9,15.1l15.1,14.4,8.3-7.9L14.2,7.2H5.8v7.9Z"/>
  <path class="cls-1" d="M10.1,14.2c-1.5,0-2.8-1.2-2.8-2.7s1.3-2.7,2.8-2.7,2.8,1.2,2.8,2.7c0,1.5-1.2,2.7-2.8,2.7ZM10.1,10c-.8,0-1.5.6-1.5,1.4s.7,1.5,1.5,1.4c.8,0,1.5-.6,1.5-1.4,0-.7-.6-1.4-1.5-1.4Z"/>
  <path class="cls-2" d="M14.4,6.6H5.4l-.2,8.8,10.8,10.3,9.3-9L14.4,6.6ZM10.1,13.7c-1.2,0-2.2-1-2.2-2.2s1-2.2,2.2-2.2,2.2,1,2.2,2.2c0,1.2-.9,2.2-2.2,2.2Z"/>
  <polygon class="cls-1" points="26 17 16.4 26.1 15.5 25.2 25.2 16.1 26 17"/>
  <path class="cls-5" d="M29.9,21.9l-8.9,8.5L5.2,15.4V6.6h9.1c.1,0,.2,0,.3,0l15.3,14.6c.2.1.2.4,0,.6q.1,0,0,0Z"/>
  <ellipse class="cls-5" cx="10.1" cy="11.5" rx="2.2" ry="2.1"/>
  <path class="cls-4" d="M4.7,9.7c-1.3-1.1-2.2-2.5-2.7-4.1-.7-1.5-.1-3.3,1.5-4,1.1-.5,2.4-.3,3.3.5,2.6,2.4,4.8,6.9,2.9,9.1"/>
</svg>