<?xml version="1.0" encoding="UTF-8"?>
<svg id="aedd06e8-9f9e-484d-8a3d-8c64a677de60" xmlns="http://www.w3.org/2000/svg" version="1.1" viewBox="0 0 16 16">
  <defs>
    <style>
      .cls-1 {
        fill: #fff;
      }

      .cls-1, .cls-2, .cls-3 {
        stroke: #000;
      }

      .cls-1, .cls-3 {
        stroke-miterlimit: 10;
      }

      .cls-2 {
        stroke-linecap: round;
        stroke-linejoin: round;
      }

      .cls-2, .cls-3 {
        fill: #21b7b3;
      }
    </style>
  </defs>
  <path class="cls-1" d="M4.8,2.8c-1.8,0-3.3,1.5-3.3,3.3,0,.9.3,1.7,1,2.3h0c1.7,2,3.5,3.9,5.5,5.6,2-1.7,3.8-3.6,5.5-5.6,1.3-1.2,1.3-3.3,0-4.5,0,0,0,0,0,0-1.2-1.3-3.3-1.3-4.5,0,0,0,0,0,0,0h0l-.9.9-.9-.9c-.6-.6-1.4-1-2.3-1Z"/>
  <path class="cls-2" d="M10.6,11.2c0-1.4-1.2-2.4-2.6-2.4-1.4,0-2.5,1-2.6,2.3,0,0,0,0,0,0h5.2Z"/>
  <circle class="cls-3" cx="8" cy="7.2" r="1.6"/>
</svg>