<?xml version="1.0" encoding="UTF-8"?>
<svg id="b573cc16-6ce0-4e96-ba17-fed65657b5dc" xmlns="http://www.w3.org/2000/svg" version="1.1" viewBox="0 0 16 16">
  <defs>
    <style>
      .cls-1 {
        fill: #21b7b3;
      }

      .cls-1, .cls-2, .cls-3 {
        stroke: #000;
        stroke-linecap: round;
        stroke-linejoin: round;
      }

      .cls-2 {
        fill: none;
      }

      .cls-3 {
        fill: #fff;
      }
    </style>
  </defs>
  <line class="cls-2" x1="8.5" y1="4.8" x2="8.5" y2="13.5"/>
  <line class="cls-2" x1="10.2" y1="13.5" x2="6.7" y2="13.5"/>
  <polyline class="cls-3" points="14.6 10 12.6 5.4 10.6 10"/>
  <path class="cls-3" d="M7.5,3.9c0,.5.4.8.8.8s.8-.4.8-.8-.4-.8-.8-.8c-.4,0-.8.3-.8.8Z"/>
  <path class="cls-1" d="M12.6,12.1c-1.1,0-2-.9-2-2h0c0-.1,4-.1,4-.1,0,1.1-.8,2.1-2,2.1,0,0,0,0,0,0Z"/>
  <polyline class="cls-3" points="1.6 7.1 3.6 2.5 5.6 7.1"/>
  <path class="cls-3" d="M3.6,9.2c1.1,0,2-.9,2-2h0c0,0-4,0-4,0,0,1.1.8,2.1,2,2.1,0,0,0,0,0,0Z"/>
  <line class="cls-2" x1="9.2" y1="4.2" x2="12.6" y2="5.3"/>
  <line class="cls-2" x1="7.5" y1="3.6" x2="3.6" y2="2.5"/>
</svg>