<?xml version="1.0" encoding="UTF-8"?>
<svg id="fd25c1d3-5964-4614-806b-4e01f8376bfd" xmlns="http://www.w3.org/2000/svg" version="1.1" viewBox="0 0 24 24">
  <defs>
    <style>
      .cls-1 {
        fill: #000;
      }

      .cls-1, .cls-2, .cls-3 {
        stroke-width: 0px;
      }

      .cls-4 {
        fill: none;
        stroke: #000;
        stroke-linecap: square;
        stroke-linejoin: round;
      }

      .cls-2 {
        fill: #fff;
      }

      .cls-3 {
        fill: #21b7b3;
      }
    </style>
  </defs>
  <rect class="cls-2" x="1" y="4" width="22" height="14"/>
  <path class="cls-1" d="M24,19H0V3h24v16ZM1,18h22V4H1v14Z"/>
  <line class="cls-4" x1="14.5" y1="16.5" x2="21" y2="16.5"/>
  <line class="cls-4" x1="14.5" y1="13.5" x2="21" y2="13.5"/>
  <line class="cls-4" x1="14.5" y1="10.5" x2="21" y2="10.5"/>
  <line class="cls-4" x1="14.5" y1="7.5" x2="21" y2="7.5"/>
  <circle class="cls-3" cx="7.4" cy="9" r="3"/>
  <path class="cls-3" d="M7.4,12.3c-2.3,0-4.3,1.7-4.7,4h9.3c-.2-2.4-2.2-4.1-4.6-4Z"/>
  <path class="cls-1" d="M12.9,16.5c0-2.1-1.4-3.9-3.4-4.6h0c1.6-1.1,1.9-3.3.8-4.9s-3.4-1.8-4.9-.7-1.9,3.3-.8,4.9c.2.3.5.6.8.8-2,.7-3.3,2.5-3.3,4.6v.4h10.8v-.5ZM4.9,9.1c0-1.4,1.1-2.5,2.5-2.5s2.5,1.1,2.5,2.5-1.1,2.5-2.5,2.5h0c-1.3,0-2.5-1.1-2.5-2.5ZM3,16c.4-1.8,1.9-3.2,3.7-3.4.2,0,.5-.1.7-.1,2.2-.1,4.1,1.4,4.4,3.5H3Z"/>
</svg>