<?xml version="1.0" encoding="UTF-8"?>
<svg id="uuid-9a823c56-713a-4bb3-9d70-45ebc59b8782" xmlns="http://www.w3.org/2000/svg" version="1.1" viewBox="0 0 16 16">
  <defs>
    <style>
      .cls-1 {
        fill: #000;
        stroke-width: 0px;
      }

      .cls-2 {
        stroke-width: .4px;
      }

      .cls-2, .cls-3, .cls-4, .cls-5, .cls-6 {
        stroke: #000;
        stroke-linecap: round;
        stroke-linejoin: round;
      }

      .cls-2, .cls-4, .cls-7, .cls-5 {
        fill: none;
      }

      .cls-3, .cls-5 {
        stroke-width: .5px;
      }

      .cls-3, .cls-6 {
        fill: #21b7b3;
      }

      .cls-7 {
        stroke: #21b7b3;
      }

      .cls-7, .cls-8 {
        stroke-miterlimit: 10;
      }

      .cls-7, .cls-6 {
        stroke-width: .4px;
      }

      .cls-8 {
        fill: #fff;
        stroke: #fff;
      }
    </style>
  </defs>
  <g>
    <polygon class="cls-8" points="10.9 .5 13.5 .5 13.5 15.5 2.5 15.5 2.5 .5 5.1 .5 10.9 .5"/>
    <path class="cls-1" d="M13,1H3v14h10V1S10.7,0,10.9,0h2.6c.3,0,.5.2.5.5v15c0,.3-.2.5-.5.5H2.5c-.3,0-.5-.2-.5-.5V.5C2,.2,2.2,0,2.5,0h8.4"/>
  </g>
  <line class="cls-4" x1="8.5" y1="9.5" x2="11.5" y2="9.5"/>
  <line class="cls-4" x1="8.5" y1="12.5" x2="11.5" y2="12.5"/>
  <g>
    <circle class="cls-3" cx="10" cy="4.3" r="1.5"/>
    <polyline class="cls-5" points="10 3.5 10 4.3 10.6 4.3"/>
  </g>
  <rect class="cls-6" x="4.9" y="11.7" width="1.5" height="1.5"/>
  <g>
    <polygon class="cls-2" points="5.7 10.5 4.5 9.7 4.9 9.2 5.5 9.6 6.3 8.3 6.9 8.7 5.7 10.5"/>
    <polyline class="cls-7" points="4.8 9.5 5.6 10.1 6.5 8.6"/>
  </g>
</svg>