<?xml version="1.0" encoding="UTF-8"?>
<svg id="f6ef67d5-b410-4b0f-90b2-17065a875ea3" xmlns="http://www.w3.org/2000/svg" version="1.1" viewBox="0 0 32 32">
  <defs>
    <style>
      .cls-1 {
        fill: #21b7b3;
      }

      .cls-1, .cls-2, .cls-3 {
        stroke: #000;
        stroke-linecap: round;
        stroke-linejoin: round;
      }

      .cls-2 {
        fill: none;
      }

      .cls-3 {
        fill: #fff;
      }
    </style>
  </defs>
  <line class="cls-2" x1="15.5" y1="7.2" x2="15.5" y2="27.5"/>
  <line class="cls-2" x1="11.9" y1="27.5" x2="19.1" y2="27.5"/>
  <polyline class="cls-3" points="2.5 16.3 6.6 6.5 10.7 16.3"/>
  <path class="cls-3" d="M17.3,5.8c0,1-.8,1.7-1.8,1.7s-1.7-.8-1.7-1.8.8-1.7,1.8-1.7c.9,0,1.7.8,1.7,1.8Z"/>
  <path class="cls-1" d="M6.6,21.2c2.3-.1,4.2-2,4.1-4.4h0c0-.1-8.2-.1-8.2-.1,0,2.3,1.6,4.3,4,4.5,0-.1,0-.1,0,0Z"/>
  <polyline class="cls-3" points="29.5 16.3 25.4 6.4 21.3 16.3"/>
  <path class="cls-1" d="M25.4,21.2c-2.3-.1-4.2-2-4.1-4.4h0c0-.1,8.2-.1,8.2-.1.1,2.3-1.6,4.3-4,4.5,0-.1-.1-.1-.1,0Z"/>
  <line class="cls-2" x1="13.8" y1="5.8" x2="4.7" y2="5.8"/>
  <line class="cls-2" x1="17.3" y1="5.8" x2="27.6" y2="5.8"/>
</svg>