<?xml version="1.0" encoding="UTF-8"?>
<svg id="f6ef67d5-b410-4b0f-90b2-17065a875ea3" xmlns="http://www.w3.org/2000/svg" version="1.1" viewBox="0 0 16 16">
  <defs>
    <style>
      .cls-1 {
        fill: #21b7b3;
      }

      .cls-1, .cls-2, .cls-3 {
        stroke: #000;
        stroke-linecap: round;
        stroke-linejoin: round;
      }

      .cls-2 {
        fill: none;
      }

      .cls-3 {
        fill: #fff;
      }
    </style>
  </defs>
  <line class="cls-2" x1="7.5" y1="4.2" x2="7.5" y2="13.5"/>
  <line class="cls-2" x1="5.7" y1="13.5" x2="9.2" y2="13.5"/>
  <polyline class="cls-3" points="1.2 8.1 3.2 3.4 5.2 8.1"/>
  <path class="cls-3" d="M8.3,3.1c0,.5-.4.8-.9.8-.4,0-.8-.4-.8-.9s.4-.8.8-.8.9.4.9.9Z"/>
  <path class="cls-1" d="M3.2,10.5c1.1,0,2-1,2-2.1h0c0-.1-4-.1-4-.1,0,1.1.8,2.1,2,2.2-.1,0,0,0,0,0Z"/>
  <polyline class="cls-3" points="14.2 8.1 12.2 3.4 10.2 8.1"/>
  <path class="cls-1" d="M12.2,10.5c-1.1,0-2-1-2-2.1h0c0-.1,4-.1,4-.1.1,1.1-.8,2.1-2,2.2.1,0,0,0,0,0Z"/>
  <line class="cls-2" x1="6.6" y1="3.1" x2="2.2" y2="3.1"/>
  <line class="cls-2" x1="8.3" y1="3.1" x2="13.3" y2="3.1"/>
</svg>