<?xml version="1.0" encoding="UTF-8"?>
<svg id="eb3bd8c6-fec9-4643-8863-2360b184f3df" xmlns="http://www.w3.org/2000/svg" version="1.1" viewBox="0 0 16 16">
  <defs>
    <style>
      .cls-1 {
        fill: #000;
      }

      .cls-1, .cls-2, .cls-3 {
        stroke-width: 0px;
      }

      .cls-4 {
        stroke-linecap: round;
      }

      .cls-4, .cls-5 {
        stroke-miterlimit: 10;
      }

      .cls-4, .cls-5, .cls-6 {
        fill: none;
        stroke: #000;
      }

      .cls-6 {
        stroke-linejoin: round;
      }

      .cls-2 {
        fill: #fff;
      }

      .cls-3 {
        fill: #21b7b3;
      }
    </style>
  </defs>
  <polygon class="cls-3" points="8 12.3 10.1 14.4 14.2 10.5 12 8.3 8 12.3"/>
  <path class="cls-1" d="M10.4,14.8q-.1,0-.2-.1l-7.1-6.7q0,0,0-.2v-3.9c0-.2,0-.3.3-.3h4.1c0,0,.2,0,.3,0l6.9,6.6c.2.2.2.5,0,.7h0l-4,3.8h-.2ZM3.6,7.7l6.8,6.5,3.7-3.6-6.8-6.5h-3.7v3.6Z"/>
  <path class="cls-1" d="M5.5,7.3c-.7,0-1.2-.5-1.3-1.2,0-.7.6-1.2,1.3-1.2s1.2.5,1.3,1.2c-.1.6-.6,1.2-1.3,1.2ZM5.5,5.4c-.4,0-.7.3-.7.6s.3.7.7.6c.4,0,.7-.3.7-.6s-.3-.6-.7-.6Z"/>
  <path class="cls-2" d="M7.4,3.9H3.4v4c0,0,4.7,4.6,4.7,4.6l4-4.1L7.4,3.9ZM5.5,7.1c-.5,0-1-.4-1-1s.4-1,1-1,1,.4,1,1-.5,1-1,1Z"/>
  <path class="cls-6" d="M14.4,10.7l-4,3.8L3.3,7.8v-3.9h4.1q0,0,0,0l6.9,6.6c0-.1,0,0,0,0h0Z"/>
  <ellipse class="cls-6" cx="5.5" cy="6.1" rx="1" ry=".9"/>
  <path class="cls-4" d="M3,5.3c-.6-.5-1-1.1-1.2-1.8-.3-.7,0-1.5.7-1.9.5-.2,1.1-.1,1.5.3,1.1,1,2.1,3.1,1.3,4.1"/>
  <line class="cls-5" x1="7.9" y1="11.9" x2="11.8" y2="8.1"/>
</svg>