<?xml version="1.0" encoding="UTF-8"?>
<svg id="b9e5e45f-32fb-48a9-8158-3add9c642e6a" xmlns="http://www.w3.org/2000/svg" version="1.1" viewBox="0 0 32 32">
  <defs>
    <style>
      .cls-1 {
        fill: #000;
      }

      .cls-1, .cls-2, .cls-3 {
        stroke-width: 0px;
      }

      .cls-4 {
        stroke: #000;
        stroke-linecap: round;
        stroke-linejoin: round;
      }

      .cls-4, .cls-2 {
        fill: #fff;
      }

      .cls-3 {
        fill: #21b7b3;
      }
    </style>
  </defs>
  <polygon class="cls-2" points="7.4 16.2 2.6 21.2 2.5 29.1 29.6 29.1 29.6 21.3 24.9 16.2 7.4 16.2"/>
  <path class="cls-3" d="M16.6,16.6c-.4,0-.8-.3-1.1-.7-.1-.1-.1-.2-.1-.4V7l-2.3,2.5c-.4.4-1,.4-1.4,0s-.4-1,0-1.4h0l4.3-4.3c.1,0,.2-.2.3-.2.4-.2.8,0,1.1.2l4.2,4.2c.4.4.4,1,0,1.4s-1,.4-1.4,0h0l-2.4-2.4v8.6c0,.1,0,.2-.1.3-.2.4-.7.7-1.1.7Z"/>
  <path class="cls-1" d="M16.6,4.1c.1,0,.2,0,.3,0l4.3,4.3c.2.2.2.4,0,.6-.2.2-.4.2-.6,0h0l-3.4-3.5v10.1c-.1.2-.3.4-.6.4s-.4-.2-.6-.4V5.5l-3.4,3.5c-.2.2-.4.2-.6,0-.2-.2-.2-.4,0-.6l4.3-4.3c.1,0,.2,0,.3,0M16.6,2.9c-.4,0-.8.2-1.1.5l-4.3,4.3c-.6.6-.6,1.6,0,2.3.6.6,1.6.6,2.3,0h0l1.3-1.4v7.1c0,.3.1.5.2.7.3.5.9.9,1.5.9s1.3-.4,1.6-1c.1-.2.2-.4.2-.6v-7.2l1.4,1.4c.6.6,1.6.6,2.3,0,.6-.6.6-1.6,0-2.3h0l-4.3-4.3c-.3-.2-.7-.4-1.1-.4Z"/>
  <polygon class="cls-4" points="29.5 29.5 2.5 29.5 2.5 21.3 10.7 21.3 10.7 23.6 21.3 23.6 21.3 21.3 29.5 21.3 29.5 29.5"/>
  <polyline class="cls-4" points="2.5 21.3 7.2 16.6 10.7 16.6"/>
  <polyline class="cls-4" points="29.5 21.3 24.8 16.6 21.3 16.6"/>
</svg>