<?xml version="1.0" encoding="UTF-8"?>
<svg id="feb2c3b6-a8cc-422f-90d5-02f5fff6952a" xmlns="http://www.w3.org/2000/svg" version="1.1" viewBox="0 0 32 32">
  <defs>
    <style>
      .cls-1 {
        fill: #21b7b3;
      }

      .cls-1, .cls-2, .cls-3 {
        stroke: #000;
        stroke-linecap: round;
        stroke-linejoin: round;
      }

      .cls-2 {
        fill: none;
      }

      .cls-3, .cls-4 {
        fill: #fff;
      }

      .cls-4 {
        stroke-width: 0px;
      }
    </style>
  </defs>
  <circle class="cls-4" cx="6.9" cy="23.4" r="2.3"/>
  <circle class="cls-4" cx="25.2" cy="23.4" r="2.3"/>
  <polyline class="cls-3" points="27.9 23.4 30.5 23.4 30.5 16.5 28.2 13.9 24.9 8.1 19 8.1 19 5.5 2.5 5.5 2.5 23.4 3.8 23.4"/>
  <ellipse class="cls-2" cx="25.2" cy="23.4" rx="2.7" ry="2.5"/>
  <ellipse class="cls-2" cx="6.8" cy="23.4" rx="2.7" ry="2.5"/>
  <line class="cls-2" x1="22.5" y1="23.4" x2="9.6" y2="23.4"/>
  <polyline class="cls-2" points="21.6 10.6 23.9 10.6 25.8 14.4"/>
  <line class="cls-2" x1="19" y1="8.1" x2="19" y2="20.8"/>
  <line class="cls-2" x1="30.5" y1="20.8" x2="1.2" y2="20.8"/>
  <path class="cls-1" d="M14.2,10c1.4,2.6.4,5.7-2,7-1.8,1-4.1.8-5.7-.5-.3-.1-.5-.5-.8-.8-1.8-2.3-1.3-5.6,1-7.3,1.7-1.3,3.8-1.4,5.6-.5.8.4,1.5,1.2,1.9,2.1Z"/>
  <polyline class="cls-1" points="8.9 9.3 8.9 13.1 11.4 13.1"/>
</svg>