<?xml version="1.0" encoding="UTF-8"?>
<svg id="a169cb3d-e1b1-4896-9ec1-58816d300f66" xmlns="http://www.w3.org/2000/svg" version="1.1" viewBox="0 0 24 24">
  <defs>
    <style>
      .cls-1 {
        fill: #000;
      }

      .cls-1, .cls-2 {
        stroke-width: 0px;
      }

      .cls-3 {
        stroke-miterlimit: 10;
        stroke-width: .5px;
      }

      .cls-3, .cls-4 {
        fill: #fff;
        stroke: #000;
      }

      .cls-4 {
        stroke-linecap: round;
        stroke-linejoin: round;
      }

      .cls-2 {
        fill: #21b7b3;
      }
    </style>
  </defs>
  <g>
    <circle class="cls-2" cx="12" cy="12" r="11.5"/>
    <path class="cls-1" d="M12,1c6.1,0,11,4.9,11,11s-4.9,11-11,11S1,18.1,1,12,5.9,1,12,1M12,0C5.4,0,0,5.4,0,12s5.4,12,12,12,12-5.4,12-12S18.6,0,12,0h0Z"/>
  </g>
  <path class="cls-4" d="M5.9,7.5h12.3c1.3,0,2.4,1.1,2.4,2.4v4.3c0,1.3-1.1,2.4-2.4,2.4H5.9c-1.3,0-2.4-1.1-2.4-2.4v-4.3c0-1.3,1.1-2.4,2.4-2.4Z"/>
  <path class="cls-3" d="M17.3,11.6v.3l-1.4,2.9h-.5l1.4-2.9h-1.6v-.4h2.1Z"/>
  <path class="cls-3" d="M13,11.8c0,1.1-.4,1.7-1.1,1.7s-1.1-.6-1.1-1.7.5-1.7,1.1-1.7c.7,0,1.1.7,1.1,1.7ZM11.3,11.9c0,.8.3,1.3.7,1.3s.7-.5.7-1.3-.2-1.3-.7-1.3c-.5,0-.7.4-.7,1.3Z"/>
  <path class="cls-3" d="M8.4,11.8c0,1.1-.4,1.7-1.1,1.7s-1.1-.6-1.1-1.7.5-1.7,1.1-1.7c.7,0,1.1.7,1.1,1.7ZM6.6,11.9c0,.8.3,1.3.7,1.3s.7-.5.7-1.3-.2-1.3-.7-1.3c-.4,0-.7.4-.7,1.3Z"/>
  <path class="cls-3" d="M17.4,8c0,1.1-.4,1.7-1.1,1.7s-1.1-.6-1.1-1.7M15.6,8c0,.8.3,1.3.7,1.3s.7-.5.7-1.3"/>
</svg>