<?xml version="1.0" encoding="UTF-8"?>
<svg id="a8387ace-0f4a-473d-be85-293fe22393ce" xmlns="http://www.w3.org/2000/svg" version="1.1" viewBox="0 0 32 32">
  <defs>
    <style>
      .cls-1 {
        fill: #000;
      }

      .cls-1, .cls-2, .cls-3 {
        stroke-width: 0px;
      }

      .cls-4 {
        fill: none;
        stroke: #000;
        stroke-linecap: round;
        stroke-linejoin: round;
      }

      .cls-2 {
        fill: #fff;
      }

      .cls-3 {
        fill: #21b7b3;
      }
    </style>
  </defs>
  <path class="cls-1" d="M21.6,29h-11.2c-.4,0-.6-.2-.6-.5s.2-.5.6-.5h11.2c.4,0,.6.2.6.5s-.2.5-.6.5Z"/>
  <path class="cls-2" d="M30.4,24.1c0,1.1-.7,2-1.9,2H3.5c-1.1,0-1.9-.9-1.9-2V5.6c0-1.1.7-2,1.9-2h25c1.1,0,1.9.9,1.9,2v18.5Z"/>
  <line class="cls-4" x1="25.1" y1="10.6" x2="16.6" y2="10.6"/>
  <polyline class="cls-4" points="22.2 13.4 25.1 10.6 22.2 7.7"/>
  <line class="cls-4" x1="17.9" y1="14.2" x2="9" y2="14.2"/>
  <polyline class="cls-4" points="11.9 17.1 9 14.2 11.9 11.4"/>
  <rect class="cls-3" x="2" y="21.4" width="28" height="4.4"/>
  <rect class="cls-1" x="1" y="20.5" width="30" height="1.2"/>
  <path class="cls-1" d="M28,4.3c1,0,1.7.9,1.7,1.9v17.7c0,1-.7,1.9-1.7,1.9H4c-1,0-1.7-.9-1.7-1.9V6.2c0-1,.7-1.9,1.7-1.9h24M28,3H4c-1.8,0-3,1.5-3,3.2v17.7c0,1.6,1.2,3.1,3,3.1h24c1.7,0,3.1-1.5,3-3.2V6.2c0-1.7-1.3-3.2-3-3.2h0Z"/>
  <rect class="cls-1" x="15" y="26" width="2" height="3"/>
</svg>