<?xml version="1.0" encoding="UTF-8"?>
<svg id="f0df9043-7699-49a7-ab7c-3bf323993ab5" xmlns="http://www.w3.org/2000/svg" version="1.1" viewBox="0 0 16 16">
  <defs>
    <style>
      .cls-1 {
        fill: #21b7b3;
      }

      .cls-1, .cls-2, .cls-3 {
        stroke: #000;
        stroke-linecap: round;
        stroke-linejoin: round;
      }

      .cls-2 {
        fill: none;
      }

      .cls-3 {
        fill: #fff;
      }
    </style>
  </defs>
  <line class="cls-2" x1="7.5" y1="4.8" x2="7.5" y2="13.5"/>
  <line class="cls-2" x1="6.2" y1="13.5" x2="8.7" y2="13.5"/>
  <polyline class="cls-3" points="1.2 10 3.2 5.4 5.2 10"/>
  <path class="cls-3" d="M8.3,3.9c0,.5-.4.8-.8.8-.5,0-.9-.3-.9-.7,0-.5.3-1,.8-1s.9.4.9.9h0Z"/>
  <path class="cls-1" d="M3.2,12.1c1.1,0,2-.9,2-2h0c0-.1-4-.1-4-.1,0,1.1.8,2.1,2,2.1-.1,0,0,0,0,0Z"/>
  <polyline class="cls-3" points="14.2 7.1 12.2 2.5 10.2 7.1"/>
  <path class="cls-3" d="M12.2,9.2c-1.1,0-2-.9-2-2h0c0,0,4,0,4,0,.1,1.1-.8,2.1-2,2.1.1,0,0,0,0,0Z"/>
  <line class="cls-2" x1="6.6" y1="4.2" x2="3.2" y2="5.3"/>
  <line class="cls-2" x1="8.3" y1="3.6" x2="12.2" y2="2.5"/>
</svg>