<?xml version="1.0" encoding="UTF-8"?>
<svg id="b17062dd-b983-4832-973a-2d25529f236f" xmlns="http://www.w3.org/2000/svg" version="1.1" viewBox="0 0 24 24">
  <defs>
    <style>
      .cls-1 {
        fill: #000;
      }

      .cls-1, .cls-2, .cls-3 {
        stroke-width: 0px;
      }

      .cls-4 {
        fill: none;
        stroke: #000;
        stroke-miterlimit: 10;
      }

      .cls-2 {
        fill: #fff;
      }

      .cls-3 {
        fill: #21b7b3;
      }
    </style>
  </defs>
  <g>
    <path class="cls-2" d="M3.8,23.5c-.7-.1-1.3-.8-1.3-1.6V2.1c0-.8.5-1.5,1.3-1.6h16.4c.7.1,1.3.8,1.3,1.6v19.8c.1.8-.5,1.5-1.3,1.6H3.8Z"/>
    <path class="cls-1" d="M20.2,1c.5.1.8.5.8,1h0v19.8h0c0,.5-.3.9-.8,1H3.8c-.5.1-.8-.3-.8-.8h0V2.1h0c0-.5.3-.9.8-1h16.4M20.2,0H3.8c-1.1.1-1.9,1-1.8,2.1v19.8c-.1,1.1.7,2,1.8,2.1h16.5c1.1-.1,1.8-1,1.8-2.1V2.1c0-1.1-.8-2-1.9-2.1h0Z"/>
  </g>
  <path class="cls-3" d="M13.2,14.7c-1,0-1.4-.9-2-1.4-.2-.2-.5-.2-.7-.2-.9.1-1.8.3-2.7.6v.6c0,.4,0,.9,0,1.3.8,2.2,3.2,3.4,5.4,2.6,2-.7,3.2-2.8,2.8-5-.1,0-1.6,1.5-2.9,1.5Z"/>
  <path class="cls-4" d="M7.2,4.5h-2.4c0,0-.3,0-.3-.2v-1.6c0,0,0-.2.3-.2h2.5c0,0,.3,0,.3.2v1.6c-.1,0-.2.2-.4.2Z"/>
  <line class="cls-4" x1="22" y1="6.5" x2="3" y2="6.5"/>
  <circle class="cls-4" cx="15.5" cy="3.5" r="1"/>
  <circle class="cls-4" cx="18.5" cy="3.5" r="1"/>
  <path class="cls-4" d="M16.2,14.2c0,2.4-1.9,4.3-4.3,4.3s-4.3-1.9-4.3-4.3,1.9-4.3,4.3-4.3,4.3,1.9,4.3,4.3h0Z"/>
  <path class="cls-4" d="M7.8,13.6c.9-.3,1.8-.4,2.8-.5.9,0,1.4,1.5,2.6,1.6,1.4.1,3-1.5,3-1.5"/>
</svg>