<?xml version="1.0" encoding="UTF-8"?>
<svg id="eb3bd8c6-fec9-4643-8863-2360b184f3df" xmlns="http://www.w3.org/2000/svg" version="1.1" viewBox="0 0 24 24">
  <defs>
    <style>
      .cls-1 {
        fill: #000;
      }

      .cls-1, .cls-2, .cls-3 {
        stroke-width: 0px;
      }

      .cls-4 {
        stroke-linecap: round;
        stroke-miterlimit: 10;
      }

      .cls-4, .cls-5 {
        fill: none;
        stroke: #000;
      }

      .cls-5 {
        stroke-linejoin: round;
      }

      .cls-2 {
        fill: #fff;
      }

      .cls-3 {
        fill: #21b7b3;
      }
    </style>
  </defs>
  <polygon class="cls-3" points="12.2 19.7 15.9 23.4 23.2 16.5 19.2 12.6 12.2 19.7"/>
  <path class="cls-1" d="M16,24c-.1,0-.3,0-.3-.1L3.2,11.9c0,0-.2-.2-.2-.4v-7c0-.3.2-.5.5-.5h7.2c.2,0,.4,0,.6.2l12.2,11.6c.3.3.3.8,0,1.2,0,0,0,0,0,0l-7.1,6.8c0,0-.2.1-.3.1ZM4,11.3l12,11.5,6.6-6.3L10.6,5H4s0,6.3,0,6.3Z"/>
  <path class="cls-1" d="M7.4,10.6c-1.2,0-2.2-.9-2.2-2.1,0-1.2,1-2.2,2.2-2.1,1.2,0,2.2.9,2.2,2.1,0,1.2-1,2.2-2.2,2.1ZM7.4,7.3c-.7,0-1.2.5-1.2,1.1,0,.7.6,1.2,1.2,1.1.7,0,1.2-.5,1.2-1.1,0-.7-.6-1.2-1.2-1.1Z"/>
  <path class="cls-2" d="M10.8,4.5H3.6l-.2,7,8.6,8.2,7.4-7.1L10.8,4.5ZM7.4,10.2c-1,0-1.8-.8-1.8-1.8s.8-1.8,1.8-1.8,1.8.8,1.8,1.8c0,1-.8,1.8-1.8,1.8Z"/>
  <polygon class="cls-1" points="20 12.8 12.3 20.1 11.6 19.4 19.3 12.1 20 12.8"/>
  <path class="cls-5" d="M23.1,16.7l-7.1,6.8L3.5,11.5v-7s7.2,0,7.2,0c0,0,.2,0,.2,0l12.2,11.6c.1.1.1.3,0,.5,0,0,0,0,0,0Z"/>
  <ellipse class="cls-5" cx="7.4" cy="8.4" rx="1.7" ry="1.6"/>
  <path class="cls-4" d="M3,7c-1-.9-1.7-2-2.1-3.2-.6-1.2,0-2.6,1.2-3.2.9-.4,1.9-.3,2.6.4,2.1,1.9,3.8,5.5,2.3,7.3"/>
</svg>