<?xml version="1.0" encoding="UTF-8"?>
<svg id="ac2eff0e-c117-428d-a6d1-2392f20ccf79" xmlns="http://www.w3.org/2000/svg" version="1.1" viewBox="0 0 24 24">
  <defs>
    <style>
      .cls-1 {
        stroke-width: 1px;
      }

      .cls-1, .cls-2, .cls-3 {
        stroke-linecap: round;
      }

      .cls-1, .cls-2, .cls-3, .cls-4 {
        stroke: #000;
        stroke-linejoin: round;
      }

      .cls-1, .cls-3 {
        fill: #fff;
      }

      .cls-2 {
        fill: none;
      }

      .cls-4 {
        fill: #21b7b3;
      }
    </style>
  </defs>
  <line class="cls-2" x1="7.1" y1="13.9" x2="10.5" y2="17.2"/>
  <path class="cls-3" d="M4.5,21.8c-.5.5-1.2.5-1.7,0s-.5-1.2,0-1.7l5.2-5.2,1.7,1.7-5.2,5.2Z"/>
  <line class="cls-2" x1="19" y1="5.7" x2="8.8" y2="15.7"/>
  <rect class="cls-1" x="18.7" y="3.3" width="3.4" height="1.7" transform="translate(3 15.6) rotate(-45)"/>
  <path class="cls-4" d="M9.8,3.5c-1.3-1.3-3.3-1.6-4.9-.7l2.1,2.1v1.7h-1.8l-2.1-2.1c-1.1,2.1-.3,4.6,1.8,5.7,1.2.6,2.6.6,3.8,0l11.4,11.4c.5.5,1.3.5,1.8,0s.5-1.3,0-1.8h0l-11.3-11.4c.8-1.6.5-3.6-.8-4.9Z"/>
</svg>