<?xml version="1.0" encoding="UTF-8"?>
<svg id="b9e5e45f-32fb-48a9-8158-3add9c642e6a" xmlns="http://www.w3.org/2000/svg" version="1.1" viewBox="0 0 32 32">
  <defs>
    <style>
      .cls-1 {
        fill: #000;
      }

      .cls-1, .cls-2, .cls-3, .cls-4 {
        stroke-width: 0px;
      }

      .cls-2 {
        fill: #377ab5;
      }

      .cls-3 {
        fill: #fff;
      }

      .cls-4 {
        fill: #21b7b3;
      }
    </style>
  </defs>
  <polyline class="cls-3" points="7 29 7 29.5 29.5 29.5 29.5 21.3 21.3 21.3 21.3 23.6 10.7 23.6 10.7 21.3 9 21.3 9 28"/>
  <polygon class="cls-3" points="8.3 18 10.7 16.6 7.2 16.6 5.8 18 8.3 18"/>
  <polyline class="cls-3" points="7 29 7 29.1 29.6 29.1 29.6 21.3 24.9 16.2 7.4 16.2 5.7 18 9 18 9 28"/>
  <path class="cls-4" d="M16.6,16.6c-.4,0-.8-.3-1.1-.7-.1-.1-.1-.2-.1-.4V7l-2.3,2.5c-.4.4-1,.4-1.4,0s-.4-1,0-1.4h0l4.3-4.3c.1,0,.2-.2.3-.2.4-.2.8,0,1.1.2l4.2,4.2c.4.4.4,1,0,1.4s-1,.4-1.4,0h0l-2.4-2.4v8.6c0,.1,0,.2-.1.3-.2.4-.7.7-1.1.7Z"/>
  <path class="cls-1" d="M16.6,4.1c.1,0,.2,0,.3,0l4.3,4.3c.2.2.2.4,0,.6-.2.2-.4.2-.6,0h0l-3.4-3.5v10.1c-.1.2-.3.4-.6.4s-.4-.2-.6-.4V5.5l-3.4,3.5c-.2.2-.4.2-.6,0-.2-.2-.2-.4,0-.6l4.3-4.3c.1,0,.2,0,.3,0M16.6,2.9c-.4,0-.8.2-1.1.5l-4.3,4.3c-.6.6-.6,1.6,0,2.3.6.6,1.6.6,2.3,0h0l1.3-1.4v7.1c0,.3.1.5.2.7.3.5.9.9,1.5.9s1.3-.4,1.6-1c.1-.2.2-.4.2-.6v-7.2l1.4,1.4c.6.6,1.6.6,2.3,0,.6-.6.6-1.6,0-2.3h0l-4.3-4.3c-.3-.2-.7-.4-1.1-.4Z"/>
  <g>
    <polyline class="cls-3" points="29.5 21.3 24.8 16.6 21.3 16.6"/>
    <path class="cls-1" d="M29.5,21.8c-.1,0-.3,0-.4-.1l-4.6-4.6h-3.3c-.3,0-.5-.2-.5-.5s.2-.5.5-.5h3.5c.1,0,.3.1.4.1l4.7,4.7c.2.2.2.5,0,.7,0,.2-.2.2-.3.2Z"/>
  </g>
  <path class="cls-1" d="M10.7,16.1h-3.5c0,0-.3.1-.4.1l-1.7,1.8h1.4l.9-.9h3.3c.3,0,.5-.2.5-.5s-.2-.5-.5-.5Z"/>
  <path class="cls-2" d="M1,21h4.3l-4.2,4.2s-1.1,1.2-1.1,2.8,1.8,4,4,4h1v-1h-1c-1.7,0-3-1.3-3-3s.9-2.1.9-2.1l4.1-4.2v4.3h1v-6H1v1Z"/>
  <path class="cls-1" d="M29.5,20.8h-8.2c-.3,0-.5.2-.5.5v1.8h-9.6v-1.8c0-.3-.2-.5-.5-.5h-1.7v1h1.2v1.8c0,.3.2.5.5.5h10.6c.3,0,.5-.2.5-.5v-1.8h7.2v7.2H7v1h22.5c.3,0,.5-.2.5-.5v-8.2c0-.3-.2-.5-.5-.5Z"/>
</svg>