<?xml version="1.0" encoding="UTF-8"?>
<svg id="b7ef98ab-dbc3-4bd3-b5d7-700395c8ebf5" xmlns="http://www.w3.org/2000/svg" version="1.1" viewBox="0 0 16 16">
  <defs>
    <style>
      .cls-1 {
        fill: #000;
      }

      .cls-1, .cls-2 {
        stroke-width: 0px;
      }

      .cls-3 {
        fill: #21b7b3;
      }

      .cls-3, .cls-4, .cls-5 {
        stroke: #000;
        stroke-linecap: round;
        stroke-linejoin: round;
      }

      .cls-4 {
        fill: none;
      }

      .cls-5, .cls-2 {
        fill: #fff;
      }
    </style>
  </defs>
  <polygon class="cls-2" points="3 15.7 13.4 15.5 9.6 8.3 13.4 .4 2.4 .4 5.9 7.9 3 15.7"/>
  <polyline class="cls-4" points="2.9 15.4 6.2 7.9 2.9 .4"/>
  <polyline class="cls-4" points="12.9 .4 9.6 7.9 12.9 15.4"/>
  <polygon class="cls-5" points="6.3 3.6 9.6 3.6 8 7.2 6.3 3.6"/>
  <polygon class="cls-3" points="10.3 14.2 5.6 14.2 7.9 8.7 10.3 14.2"/>
  <path class="cls-1" d="M13.6,1H2.3c-.2,0-.3-.2-.3-.5s.1-.5.3-.5h11.4c.1,0,.3.2.3.5s-.2.5-.4.5Z"/>
  <path class="cls-1" d="M13.6,16H2.3c-.2,0-.3-.2-.3-.5s.1-.5.3-.5h11.4c.2,0,.3.2.3.5s-.2.5-.4.5Z"/>
</svg>