<?xml version="1.0" encoding="UTF-8"?>
<svg id="e4d1c4cd-de9c-416e-bc86-5fcbe49c521b" xmlns="http://www.w3.org/2000/svg" version="1.1" viewBox="0 0 24 24">
  <defs>
    <style>
      .cls-1 {
        fill: #000;
      }

      .cls-1, .cls-2, .cls-3, .cls-4 {
        stroke-width: 0px;
      }

      .cls-2 {
        fill: #377ab5;
      }

      .cls-3 {
        fill: #fff;
      }

      .cls-4 {
        fill: #21b7b3;
      }
    </style>
  </defs>
  <polygon class="cls-3" points="16.5 16.5 16.5 18.5 8 18.5 8 21 6 21 6 23.5 23.5 23.5 23.5 16.5 16.5 16.5"/>
  <polygon class="cls-3" points="19.6 12.2 8 12.2 8 21 6 21 6 23.2 23.6 23.2 23.6 16.5 19.6 12.2"/>
  <g>
    <polyline class="cls-3" points="23.5 16.4 19.5 12.5 16.5 12.5"/>
    <path class="cls-1" d="M23.5,16.9c-.1,0-.3,0-.3-.1l-3.9-3.8h-2.8c-.3,0-.5-.2-.5-.5s.2-.5.5-.5h3c.1,0,.3.1.3.1l4,3.9c.2.2.2.5,0,.7,0,0-.2.2-.3.2Z"/>
  </g>
  <path class="cls-4" d="M12,12.2c-.2,0-.5-.1-.6-.3l-3.6-3.6c-.4-.3-.4-.9,0-1.2.3-.3.9-.3,1.2,0l2.2,2.2V1.9c0-.5.3-.9.8-.9s.9.4.9.9v7.4l2.1-2.2c.3-.3.9-.3,1.2,0,.3.3.3.9,0,1.2l-3.6,3.6c-.2.2-.4.3-.6.3Z"/>
  <path class="cls-1" d="M12,1.5c.2,0,.4.2.4.4h0v8.6l3-3c.1,0,.4,0,.5,0s.1.3,0,.5l-3.6,3.6c-.1.1-.4.1-.5,0l-3.7-3.6c-.1-.2-.1-.4,0-.6.1,0,.4,0,.5,0h0l3,3V1.9c0-.2.2-.4.4-.4h0M12,.5c-.8,0-1.4.6-1.4,1.4v6.1l-1.3-1.3c-.5-.5-1.4-.5-1.9,0s-.5,1.4,0,1.9l3.6,3.6c.5.5,1.4.5,1.9,0h0l3.6-3.6c.5-.5.5-1.4,0-1.9s-1.4-.5-1.9,0h0l-1.2,1.3V1.9c0-.8-.6-1.4-1.4-1.4Z"/>
  <path class="cls-1" d="M23.5,16h-7c-.3,0-.5.2-.5.5v1.5h-8v1h8.5c.3,0,.5-.2.5-.5v-1.5h6v6H6v1h17.5c.3,0,.5-.2.5-.5v-7c0-.3-.2-.5-.5-.5Z"/>
  <path class="cls-2" d="M1,15h3.3l-2.7,2.7-.3.3c-.5.6-1.3,1.4-1.3,2.5,0,1.9,1.6,3.5,3.5,3.5h.5v-1h-.5c-1.4,0-2.5-1.1-2.5-2.5s.5-1.3,1.1-1.9l2.9-2.9v3.3h1v-5H1v1Z"/>
</svg>