<?xml version="1.0" encoding="UTF-8"?>
<svg id="e87630dc-cc71-4acf-b892-b536683218a9" xmlns="http://www.w3.org/2000/svg" version="1.1" viewBox="0 0 16 16">
  <defs>
    <style>
      .cls-1 {
        fill: #000;
      }

      .cls-1, .cls-2 {
        stroke-width: 0px;
      }

      .cls-3 {
        fill: #21b7b3;
      }

      .cls-3, .cls-4, .cls-5 {
        stroke: #000;
        stroke-linecap: round;
        stroke-linejoin: round;
      }

      .cls-4 {
        fill: none;
      }

      .cls-5, .cls-2 {
        fill: #fff;
      }
    </style>
  </defs>
  <g>
    <path class="cls-2" d="M.7,15.7c-.2,0-.3-.1-.3-.3V.7c0-.2,0-.3.3-.3h14.7c.2,0,.3,0,.3.3v14.7c0,.2-.1.3-.3.3H.7Z"/>
    <path class="cls-1" d="M15.3.7v14.7H.7V.7h14.6M15.3,0H.7c-.4,0-.7.3-.7.7v14.7c0,.3.3.6.7.6h14.7c.4,0,.7-.3.7-.7V.7c-.1-.4-.4-.7-.8-.7h0Z"/>
  </g>
  <path class="cls-5" d="M13.8,4.9c-.5,0-.8-.4-.7-.8v-1.6c0-.5.3-.8.7-.8h0c.5,0,.8.4.7.8v1.7c0,.3-.3.7-.7.7Z"/>
  <path class="cls-5" d="M10.7,4.9c-.5,0-.8-.4-.7-.8v-1.6c0-.5.3-.8.7-.8h0c.5,0,.8.4.7.8v1.7c.1.3-.2.7-.7.7h0Z"/>
  <path class="cls-5" d="M2.3,4.9c-.5,0-.8-.4-.7-.8v-1.6c0-.5.3-.8.7-.8h0c.5,0,.8.4.7.8v1.7c0,.3-.3.7-.7.7Z"/>
  <path class="cls-5" d="M13.3,9.6c-.5,0-.8-.4-.7-.8v-1.7c0-.5.3-.8.7-.9h0c.5,0,.8.4.7.8v1.7c.1.5-.2.9-.7.9Z"/>
  <path class="cls-3" d="M7.7,14.1c-.5,0-.8-.4-.7-.8v-1.7c0-.5.3-.8.7-.8h0c.5,0,.8.4.7.8v1.7c.1.4-.2.7-.7.8Z"/>
  <path class="cls-3" d="M13.8,14.1c-.5,0-.8-.4-.7-.8v-1.7c0-.5.3-.8.7-.8h0c.5,0,.8.4.7.8v1.7c0,.4-.3.7-.7.8Z"/>
  <path class="cls-3" d="M10.7,14.1c-.5,0-.8-.4-.7-.8v-1.7c0-.5.3-.8.7-.8h0c.5,0,.8.4.7.8v1.7c.1.4-.2.7-.7.8h0Z"/>
  <path class="cls-5" d="M5.3,9.6c-.5,0-.8-.4-.7-.8v-1.7c0-.5.3-.9.7-.9h0c.5,0,.8.4.7.8v1.7c0,.5-.2.9-.7.9Z"/>
  <path class="cls-5" d="M2.3,9.6c-.5,0-.8-.4-.7-.8v-1.7c0-.5.3-.8.7-.9h0c.5,0,.8.4.7.8v1.7c0,.5-.2.9-.7.9Z"/>
  <line class="cls-4" x1="1.6" y1="8" x2=".6" y2="8"/>
  <line class="cls-4" x1="1.5" y1="3.3" x2=".6" y2="3.3"/>
  <line class="cls-4" x1="4.3" y1="8" x2="3.1" y2="8"/>
  <line class="cls-4" x1="12.5" y1="8" x2="6.1" y2="8"/>
  <line class="cls-4" x1="10" y1="3.3" x2="3.1" y2="3.3"/>
  <line class="cls-4" x1="13" y1="3.3" x2="11.7" y2="3.3"/>
  <line class="cls-4" x1="15.3" y1="3.3" x2="14.5" y2="3.3"/>
  <line class="cls-4" x1="15.3" y1="8" x2="14.3" y2="8"/>
  <path class="cls-1" d="M9.9,12.7h-1.4c-.2,0-.3-.1-.3-.3s.1-.3.3-.3h1.4c.2,0,.3.1.3.3.1.1,0,.3-.3.3Z"/>
  <path class="cls-1" d="M.3,12.7c0,0-.3-.1-.3-.3,0-.3.2-.4.3-.4h6.6c.2,0,.3.1.3.3s0,.3-.3.3H.3Z"/>
  <path class="cls-1" d="M13,12.7h-1.5c-.2,0-.3-.1-.3-.3s.1-.3.3-.3h1.5c.2,0,.3.1.3.3s-.1.3-.3.3Z"/>
  <path class="cls-1" d="M15.3,12.7h-.7c-.2,0-.3-.1-.3-.3s.1-.3.3-.3h.7c.2,0,.3.1.3.3s-.1.3-.3.3Z"/>
</svg>