<?xml version="1.0" encoding="UTF-8"?>
<svg id="ff99fe77-bd74-4fd1-8f3a-81a951b20585" xmlns="http://www.w3.org/2000/svg" version="1.1" viewBox="0 0 16 16">
  <defs>
    <style>
      .cls-1 {
        fill: #000;
      }

      .cls-1, .cls-2, .cls-3 {
        stroke-width: 0px;
      }

      .cls-4 {
        stroke-miterlimit: 10;
      }

      .cls-4, .cls-5 {
        fill: none;
        stroke: #000;
        stroke-linecap: round;
      }

      .cls-5 {
        stroke-linejoin: round;
      }

      .cls-2 {
        fill: #fff;
      }

      .cls-3 {
        fill: #21b7b3;
      }
    </style>
  </defs>
  <circle class="cls-2" cx="8" cy="9" r="6.3"/>
  <path class="cls-3" d="M13,4.4c-2.8-2.7-7.2-2.7-10,0l5,4.9,5-4.9Z"/>
  <path class="cls-1" d="M9.7,1h-3.3c-.2,0-.3-.2-.3-.5s0-.5.3-.5h3.3c.2,0,.3.2.3.5s-.1.5-.3.5Z"/>
  <line class="cls-4" x1="12.4" y1="4.9" x2="13.6" y2="3.7"/>
  <polyline class="cls-1" points="7 2.6 7 0 9 0 9 2.5"/>
  <line class="cls-4" x1="13.3" y1="3.3" x2="13.9" y2="4"/>
  <line class="cls-5" x1="7.9" y1="9.3" x2="4.3" y2="5.7"/>
  <line class="cls-5" x1="8" y1="9.3" x2="12.3" y2="4.9"/>
  <path class="cls-1" d="M8,3c3.3,0,6,2.7,6,6s-2.7,6-6,6-6-2.7-6-6c0-3.3,2.7-6,6-6M8,2c-3.9,0-7,3.1-7,7s3.1,7,7,7,7-3.1,7-7-3.1-7-7-7Z"/>
</svg>